<svg width="19" height="19" viewBox="0 0 19 19" fill="none" xmlns="http://www.w3.org/2000/svg">
<g clip-path="url(#clip0_2_341)">
<path d="M9.48587 19H2.34193C1.81805 19.0215 1.30353 18.8501 0.88772 18.5155C0.471908 18.181 0.181064 17.7044 0.065701 17.1686C0.0227996 16.9572 0.00220883 16.7415 0.00429427 16.5253C0.00429427 12.4422 0.00429427 8.35916 0.00429427 4.27609C0.0104981 4.0964 0.0552729 3.92049 0.135297 3.76142C0.700262 2.69776 1.28161 1.64268 1.84657 0.579026C1.93142 0.396837 2.06554 0.24481 2.23223 0.14186C2.39893 0.0389108 2.59083 -0.010419 2.78408 1.70408e-05C7.26286 1.70408e-05 11.7416 1.70408e-05 16.2204 1.70408e-05C16.4105 -0.0101068 16.5992 0.0380593 16.7636 0.138614C16.9279 0.239169 17.0607 0.387752 17.1456 0.56616C17.7188 1.64268 18.3042 2.71063 18.8774 3.78715C18.9521 3.93211 18.9915 4.09418 18.992 4.25894C18.992 8.35059 18.992 12.4422 18.992 16.5339C19.006 16.8624 18.9545 17.1903 18.8406 17.4968C18.7268 17.8032 18.5531 18.0814 18.3308 18.3135C18.1085 18.5456 17.8423 18.7266 17.5494 18.8448C17.2565 18.963 16.9433 19.0159 16.6298 19H9.48587ZM1.11375 4.74358V16.5167C1.09581 16.695 1.11607 16.8752 1.17303 17.0443C1.23 17.2133 1.32224 17.3669 1.44304 17.4939C1.56384 17.6208 1.71016 17.718 1.87133 17.7782C2.03249 17.8384 2.20446 17.8602 2.37469 17.842H16.6257C16.7959 17.8602 16.9679 17.8384 17.1291 17.7782C17.2902 17.718 17.4366 17.6208 17.5574 17.4939C17.6782 17.3669 17.7704 17.2133 17.8274 17.0443C17.8843 16.8752 17.9046 16.695 17.8866 16.5167V4.74358H1.11375ZM17.4895 3.55984C17.0801 2.77067 16.6707 2.01153 16.2614 1.26097C16.2344 1.23018 16.2014 1.20583 16.1647 1.18955C16.128 1.17327 16.0883 1.16544 16.0485 1.16661H2.99288C2.94119 1.16252 2.88958 1.17568 2.84546 1.20418C2.80134 1.23268 2.76696 1.27508 2.74724 1.3253C2.37469 2.02439 1.99395 2.71921 1.6214 3.41402C1.59684 3.46119 1.58046 3.50837 1.5559 3.56842L17.4895 3.55984Z" fill="#E4820B"/>
<path d="M10.1203 13.4244C10.1593 13.3594 10.2031 13.2978 10.2513 13.24C10.9964 12.4537 11.7428 11.6702 12.4907 10.8896C12.5708 10.7941 12.6789 10.7288 12.798 10.704C12.9172 10.6792 13.0408 10.6962 13.1498 10.7524C13.2534 10.8023 13.3386 10.8863 13.3926 10.9915C13.4465 11.0968 13.4662 11.2176 13.4486 11.3357C13.4234 11.4711 13.3641 11.597 13.2767 11.7002C12.1549 12.884 11.0305 14.062 9.90327 15.2343C9.85293 15.2967 9.79023 15.3467 9.71952 15.3811C9.64882 15.4154 9.57182 15.4332 9.49388 15.4332C9.41594 15.4332 9.33895 15.4154 9.26824 15.3811C9.19754 15.3467 9.13483 15.2967 9.08449 15.2343C7.96001 14.0592 6.83691 12.8811 5.71517 11.7002C5.65689 11.6467 5.61019 11.5807 5.5782 11.5068C5.54621 11.4328 5.52966 11.3526 5.52966 11.2714C5.52966 11.1901 5.54621 11.1099 5.5782 11.0359C5.61019 10.9619 5.65689 10.896 5.71517 10.8425C5.76923 10.7847 5.83424 10.7395 5.906 10.7097C5.97776 10.6798 6.05469 10.6661 6.13183 10.6694C6.20897 10.6726 6.28461 10.6927 6.35387 10.7284C6.42313 10.7642 6.48448 10.8147 6.53396 10.8768L8.77744 13.2228L8.96986 13.4115V13.1499C8.96986 11.3528 8.96986 9.55577 8.96986 7.7587C8.96092 7.67504 8.96938 7.59035 8.99464 7.51043C9.01991 7.43051 9.06139 7.35727 9.11623 7.29574C9.17108 7.23421 9.23799 7.18585 9.31236 7.15397C9.38674 7.12209 9.46682 7.10746 9.5471 7.11108C9.62378 7.11469 9.69894 7.13476 9.76792 7.17004C9.8369 7.20531 9.89823 7.25505 9.94812 7.31616C9.99801 7.37727 10.0354 7.44846 10.058 7.52532C10.0805 7.60218 10.0878 7.68308 10.0793 7.763V13.3644L10.1203 13.4244Z" fill="#E4820B"/>
</g>
<defs>
<clipPath id="clip0_2_341">
<rect width="19" height="19" fill="white"/>
</clipPath>
</defs>
</svg>
