<svg width="15" height="13" viewBox="0 0 15 13" fill="none" xmlns="http://www.w3.org/2000/svg">
<g clip-path="url(#clip0_2_365)">
<path d="M14.0625 12.2223V7.48743C14.0625 7.4372 14.0378 7.38902 13.9939 7.35351C13.9499 7.318 13.8903 7.29804 13.8281 7.29804H13.5938V6.91925H14.0625V6.54046H7.03125V1.42682C7.03125 1.37659 7.00655 1.32842 6.9626 1.2929C6.91866 1.25739 6.85903 1.23743 6.79688 1.23743H1.17188C1.10971 1.23743 1.0501 1.25739 1.00615 1.2929C0.962194 1.32842 0.9375 1.37659 0.9375 1.42682V12.2223H0.46875V12.6011H14.5312V12.2223H14.0625ZM3.75 12.2223H2.8125V11.4647H3.75V12.2223ZM5.15625 12.2223H4.21875V11.4647H5.15625V12.2223ZM6.5625 12.2223H5.625V11.2753C5.625 11.2251 5.6003 11.1769 5.55635 11.1414C5.51241 11.1059 5.45278 11.0859 5.39062 11.0859H2.57812C2.51597 11.0859 2.45634 11.1059 2.4124 11.1414C2.36845 11.1769 2.34375 11.2251 2.34375 11.2753V12.2223H1.40625V1.61622H6.5625V12.2223ZM12.6562 6.91925H13.125V7.29804H12.6562V6.91925ZM11.7188 6.91925H12.1875V7.29804H11.7188V6.91925ZM10.7812 6.91925H11.25V7.29804H10.7812V6.91925ZM9.84375 6.91925H10.3125V7.29804H9.84375V6.91925ZM8.90625 6.91925H9.375V7.29804H8.90625V6.91925ZM7.96875 6.91925H8.4375V7.29804H7.96875V6.91925ZM7.03125 6.91925H7.5V7.29804H7.03125V6.91925ZM7.03125 8.81319H7.96875V9.19198H7.03125V8.81319ZM7.03125 10.7071H7.96875V11.0859H7.03125V10.7071ZM13.5938 12.2223H7.03125V11.4647H13.5938V12.2223ZM8.4375 11.0859V10.7071H9.375V11.0859H8.4375ZM9.84375 11.0859V10.7071H10.7812V11.0859H9.84375ZM11.25 11.0859V10.7071H12.1875V11.0859H11.25ZM13.5938 11.0859H12.6562V10.7071H13.5938V11.0859ZM13.5938 10.3283H7.03125V9.57076H13.5938V10.3283ZM8.4375 9.19198V8.81319H9.375V9.19198H8.4375ZM9.84375 9.19198V8.81319H10.7812V9.19198H9.84375ZM11.25 9.19198V8.81319H12.1875V9.19198H11.25ZM13.5938 9.19198H12.6562V8.81319H13.5938V9.19198ZM13.5938 8.4344H7.03125V7.67682H13.5938V8.4344Z" fill="#F7941E"/>
<path d="M2.34375 2.75258H1.875V3.13137H2.34375V2.75258Z" fill="#F7941E"/>
<path d="M3.28125 2.75258H2.8125V3.13137H3.28125V2.75258Z" fill="#F7941E"/>
<path d="M4.21875 2.75258H3.75V3.13137H4.21875V2.75258Z" fill="#F7941E"/>
<path d="M2.34375 1.99501H1.875V2.37379H2.34375V1.99501Z" fill="#F7941E"/>
<path d="M3.28125 1.99501H2.8125V2.37379H3.28125V1.99501Z" fill="#F7941E"/>
<path d="M4.21875 1.99501H3.75V2.37379H4.21875V1.99501Z" fill="#F7941E"/>
<path d="M5.15625 2.75258H4.6875V3.13137H5.15625V2.75258Z" fill="#F7941E"/>
<path d="M5.15625 1.99501H4.6875V2.37379H5.15625V1.99501Z" fill="#F7941E"/>
<path d="M6.09375 2.75258H5.625V3.13137H6.09375V2.75258Z" fill="#F7941E"/>
<path d="M6.09375 1.99501H5.625V2.37379H6.09375V1.99501Z" fill="#F7941E"/>
<path d="M2.34375 4.26773H1.875V4.64652H2.34375V4.26773Z" fill="#F7941E"/>
<path d="M3.28125 4.26773H2.8125V4.64652H3.28125V4.26773Z" fill="#F7941E"/>
<path d="M4.21875 4.26773H3.75V4.64652H4.21875V4.26773Z" fill="#F7941E"/>
<path d="M2.34375 3.51016H1.875V3.88895H2.34375V3.51016Z" fill="#F7941E"/>
<path d="M3.28125 3.51016H2.8125V3.88895H3.28125V3.51016Z" fill="#F7941E"/>
<path d="M4.21875 3.51016H3.75V3.88895H4.21875V3.51016Z" fill="#F7941E"/>
<path d="M5.15625 4.26773H4.6875V4.64652H5.15625V4.26773Z" fill="#F7941E"/>
<path d="M5.15625 3.51016H4.6875V3.88895H5.15625V3.51016Z" fill="#F7941E"/>
<path d="M6.09375 4.26773H5.625V4.64652H6.09375V4.26773Z" fill="#F7941E"/>
<path d="M6.09375 3.51016H5.625V3.88895H6.09375V3.51016Z" fill="#F7941E"/>
<path d="M2.34375 5.78289H1.875V6.16167H2.34375V5.78289Z" fill="#F7941E"/>
<path d="M3.28125 5.78289H2.8125V6.16167H3.28125V5.78289Z" fill="#F7941E"/>
<path d="M4.21875 5.78289H3.75V6.16167H4.21875V5.78289Z" fill="#F7941E"/>
<path d="M2.34375 5.02531H1.875V5.4041H2.34375V5.02531Z" fill="#F7941E"/>
<path d="M3.28125 5.02531H2.8125V5.4041H3.28125V5.02531Z" fill="#F7941E"/>
<path d="M4.21875 5.02531H3.75V5.4041H4.21875V5.02531Z" fill="#F7941E"/>
<path d="M5.15625 5.78289H4.6875V6.16167H5.15625V5.78289Z" fill="#F7941E"/>
<path d="M5.15625 5.02531H4.6875V5.4041H5.15625V5.02531Z" fill="#F7941E"/>
<path d="M6.09375 5.78289H5.625V6.16167H6.09375V5.78289Z" fill="#F7941E"/>
<path d="M6.09375 5.02531H5.625V5.4041H6.09375V5.02531Z" fill="#F7941E"/>
<path d="M2.34375 7.29803H1.875V7.67682H2.34375V7.29803Z" fill="#F7941E"/>
<path d="M3.28125 7.29803H2.8125V7.67682H3.28125V7.29803Z" fill="#F7941E"/>
<path d="M4.21875 7.29803H3.75V7.67682H4.21875V7.29803Z" fill="#F7941E"/>
<path d="M2.34375 6.54046H1.875V6.91925H2.34375V6.54046Z" fill="#F7941E"/>
<path d="M3.28125 6.54046H2.8125V6.91925H3.28125V6.54046Z" fill="#F7941E"/>
<path d="M4.21875 6.54046H3.75V6.91925H4.21875V6.54046Z" fill="#F7941E"/>
<path d="M5.15625 7.29803H4.6875V7.67682H5.15625V7.29803Z" fill="#F7941E"/>
<path d="M5.15625 6.54046H4.6875V6.91925H5.15625V6.54046Z" fill="#F7941E"/>
<path d="M6.09375 7.29803H5.625V7.67682H6.09375V7.29803Z" fill="#F7941E"/>
<path d="M6.09375 6.54046H5.625V6.91925H6.09375V6.54046Z" fill="#F7941E"/>
<path d="M2.34375 8.81319H1.875V9.19197H2.34375V8.81319Z" fill="#F7941E"/>
<path d="M3.28125 8.81319H2.8125V9.19197H3.28125V8.81319Z" fill="#F7941E"/>
<path d="M4.21875 8.81319H3.75V9.19197H4.21875V8.81319Z" fill="#F7941E"/>
<path d="M2.34375 8.05561H1.875V8.4344H2.34375V8.05561Z" fill="#F7941E"/>
<path d="M3.28125 8.05561H2.8125V8.4344H3.28125V8.05561Z" fill="#F7941E"/>
<path d="M4.21875 8.05561H3.75V8.4344H4.21875V8.05561Z" fill="#F7941E"/>
<path d="M5.15625 8.81319H4.6875V9.19197H5.15625V8.81319Z" fill="#F7941E"/>
<path d="M5.15625 8.05561H4.6875V8.4344H5.15625V8.05561Z" fill="#F7941E"/>
<path d="M6.09375 8.81319H5.625V9.19197H6.09375V8.81319Z" fill="#F7941E"/>
<path d="M6.09375 8.05561H5.625V8.4344H6.09375V8.05561Z" fill="#F7941E"/>
<path d="M2.34375 10.3283H1.875V10.7071H2.34375V10.3283Z" fill="#F7941E"/>
<path d="M3.28125 10.3283H2.8125V10.7071H3.28125V10.3283Z" fill="#F7941E"/>
<path d="M4.21875 10.3283H3.75V10.7071H4.21875V10.3283Z" fill="#F7941E"/>
<path d="M2.34375 9.57076H1.875V9.94955H2.34375V9.57076Z" fill="#F7941E"/>
<path d="M3.28125 9.57076H2.8125V9.94955H3.28125V9.57076Z" fill="#F7941E"/>
<path d="M4.21875 9.57076H3.75V9.94955H4.21875V9.57076Z" fill="#F7941E"/>
<path d="M5.15625 10.3283H4.6875V10.7071H5.15625V10.3283Z" fill="#F7941E"/>
<path d="M5.15625 9.57076H4.6875V9.94955H5.15625V9.57076Z" fill="#F7941E"/>
<path d="M6.09375 10.3283H5.625V10.7071H6.09375V10.3283Z" fill="#F7941E"/>
<path d="M6.09375 9.57076H5.625V9.94955H6.09375V9.57076Z" fill="#F7941E"/>
</g>
<defs>
<clipPath id="clip0_2_365">
<rect width="15" height="12.1212" fill="white" transform="translate(0 0.858643)"/>
</clipPath>
</defs>
</svg>
