<svg width="7" height="7" viewBox="0 0 7 7" fill="none" xmlns="http://www.w3.org/2000/svg">
<g clip-path="url(#clip0_205_115)">
<path d="M7 1.27135V6.27541C7 6.29054 7 6.30568 6.98673 6.32081C6.96212 6.47033 6.89568 6.60987 6.79508 6.72334C6.69447 6.83681 6.56378 6.9196 6.41809 6.96216C6.3708 6.97742 6.32271 6.99005 6.27403 7H0.724069C0.715296 6.9984 0.706306 6.9984 0.697533 7C0.498365 6.96999 0.317147 6.86809 0.188233 6.71362C0.0593185 6.55915 -0.00833262 6.36283 -0.00189929 6.16189C-0.00189929 4.57523 -0.00189929 2.98793 -0.00189929 1.4C-0.00247504 1.33196 0.00451798 1.26407 0.0189511 1.19757C0.0586597 1.01617 0.159207 0.85373 0.303965 0.737111C0.448724 0.620491 0.629023 0.556676 0.815051 0.556217C0.923093 0.556217 1.03303 0.556217 1.14487 0.556217V0H1.69266V0.542974H5.29407V0H5.83996V0.546757C5.96317 0.546757 6.0769 0.546757 6.19063 0.546757C6.31376 0.549231 6.43468 0.579851 6.5441 0.636262C6.65353 0.692673 6.74853 0.773374 6.82182 0.872162C6.9123 0.989114 6.9734 1.126 7 1.27135ZM6.4541 2.57487H0.54779V6.12595C0.54779 6.34919 0.650145 6.45324 0.871916 6.45324H6.12808C6.17262 6.46006 6.21815 6.45628 6.26096 6.44221C6.30377 6.42814 6.34264 6.40418 6.37441 6.37228C6.40619 6.34038 6.42997 6.30145 6.44381 6.25864C6.45766 6.21583 6.46118 6.17037 6.4541 6.12595V2.57487ZM0.54779 2.01865H6.4522C6.4522 1.79351 6.4522 1.57216 6.4522 1.35081C6.45166 1.28837 6.42822 1.22829 6.38631 1.18192C6.3444 1.13556 6.28692 1.10612 6.22475 1.09919C6.10344 1.09919 5.98212 1.09919 5.84565 1.09919V1.63838H5.29975V1.10108H1.69834V1.63838H1.15055V1.09541H0.797993C0.731022 1.09819 0.667546 1.126 0.62015 1.1733C0.572753 1.22061 0.544897 1.28397 0.542103 1.35081C0.543999 1.57216 0.54779 1.79351 0.54779 2.01865Z" fill="#7E7E7E"/>
<path d="M1.04254 3.6873V3.14811H1.58086V3.6873H1.04254Z" fill="#7E7E7E"/>
<path d="M2.13812 3.14811H2.67644V3.68541H2.13812V3.14811Z" fill="#7E7E7E"/>
<path d="M3.76823 3.68919H3.22992V3.15H3.76823V3.68919Z" fill="#7E7E7E"/>
<path d="M4.32361 3.6873V3.15H4.86382V3.6873H4.32361Z" fill="#7E7E7E"/>
<path d="M5.95561 3.68919H5.4173V3.15H5.95561V3.68919Z" fill="#7E7E7E"/>
<path d="M1.58465 4.24352V4.78081H1.04254V4.24352H1.58465Z" fill="#7E7E7E"/>
<path d="M2.67644 4.24352V4.78081H2.13812V4.24352H2.67644Z" fill="#7E7E7E"/>
<path d="M3.77013 4.7827H3.23181V4.24352H3.77013V4.7827Z" fill="#7E7E7E"/>
<path d="M4.86192 4.7827H4.32361V4.24352H4.86192V4.7827Z" fill="#7E7E7E"/>
<path d="M5.41919 4.24162H5.95751V4.77892H5.41919V4.24162Z" fill="#7E7E7E"/>
<path d="M1.58086 5.87622H1.04254V5.33703H1.58086V5.87622Z" fill="#7E7E7E"/>
<path d="M2.13812 5.33514H2.67644V5.87433H2.13812V5.33514Z" fill="#7E7E7E"/>
<path d="M3.76823 5.87622H3.22992V5.33703H3.76823V5.87622Z" fill="#7E7E7E"/>
<path d="M4.3255 5.33514H4.86382V5.86487H4.3255V5.33514Z" fill="#7E7E7E"/>
</g>
<defs>
<clipPath id="clip0_205_115">
<rect width="7" height="7" fill="white"/>
</clipPath>
</defs>
</svg>
