<svg width="19" height="19" viewBox="0 0 19 19" fill="none" xmlns="http://www.w3.org/2000/svg">
<g clip-path="url(#clip0_2_346)">
<path d="M-2.03376e-05 9.14597V3.27151C-0.0149541 2.83753 0.0596031 2.40512 0.219011 2.00119C0.37842 1.59725 0.619268 1.23044 0.92657 0.923575C1.23387 0.616708 1.60105 0.376354 2.00526 0.217467C2.40947 0.0585804 2.84206 -0.0154407 3.27611 1.43801e-05H15.0196C15.4557 -0.0161634 15.8904 0.057995 16.2965 0.217829C16.7025 0.377664 17.0712 0.619723 17.3792 0.928802C17.6872 1.23788 17.928 1.6073 18.0864 2.01386C18.2448 2.42042 18.3174 2.85534 18.2996 3.29129V11.0764C18.3036 11.1489 18.3036 11.2215 18.2996 11.294C18.2916 11.3828 18.2498 11.4652 18.1828 11.5241C18.1158 11.5829 18.0287 11.6139 17.9396 11.6105C17.8534 11.6096 17.7707 11.576 17.7082 11.5166C17.6458 11.4571 17.6083 11.3761 17.6033 11.29C17.5973 11.2176 17.5973 11.1449 17.6033 11.0725V3.21217C17.6161 2.64671 17.4328 2.09422 17.0845 1.64856C16.7361 1.20291 16.2441 0.891577 15.6922 0.767452C15.4847 0.719267 15.2721 0.696683 15.0591 0.700203H3.24446C2.90756 0.689169 2.57199 0.747444 2.25854 0.871419C1.94509 0.995395 1.66046 1.18243 1.4223 1.42092C1.18413 1.6594 0.997503 1.94427 0.87399 2.25784C0.750477 2.57141 0.692708 2.90701 0.704269 3.24382V15.0521C0.693815 15.3887 0.752506 15.724 0.876713 16.0371C1.00092 16.3502 1.18801 16.6346 1.42643 16.8726C1.66484 17.1106 1.94953 17.2972 2.2629 17.4209C2.57628 17.5446 2.91168 17.6027 3.24842 17.5917H11.0747C11.1485 17.5858 11.2226 17.5858 11.2963 17.5917C11.3817 17.5987 11.4613 17.6376 11.5192 17.7007C11.5772 17.7637 11.6092 17.8463 11.6089 17.9319C11.6122 18.0206 11.5812 18.1072 11.5222 18.1735C11.4632 18.2399 11.3809 18.2809 11.2924 18.288C11.2265 18.2919 11.1604 18.2919 11.0945 18.288H3.26424C2.83186 18.3017 2.40125 18.2267 1.99899 18.0675C1.59674 17.9084 1.23139 17.6685 0.925492 17.3626C0.619595 17.0568 0.379649 16.6915 0.220466 16.2894C0.0612834 15.8872 -0.0137574 15.4567 -2.03376e-05 15.0244V9.14597Z" fill="#E4820B"/>
<path d="M15.4904 19C15.0243 19.0006 14.5627 18.9086 14.1324 18.7294C13.7021 18.5503 13.3116 18.2875 12.9837 17.9563C12.6558 17.6251 12.3969 17.2321 12.222 16.8001C12.0471 16.3681 11.9598 15.9057 11.965 15.4397C11.9734 14.5094 12.3497 13.6202 13.0118 12.9665C13.6738 12.3127 14.5678 11.9475 15.4983 11.9507C16.4295 11.9559 17.3207 12.3297 17.977 12.9902C18.6332 13.6508 19.0011 14.5443 19 15.4753C19.0016 15.9373 18.912 16.3951 18.7363 16.8224C18.5607 17.2497 18.3025 17.6381 17.9765 17.9655C17.6505 18.2929 17.2631 18.5528 16.8365 18.7304C16.4099 18.9079 15.9525 18.9995 15.4904 19ZM18.2997 15.4951C18.3007 14.7498 18.0067 14.0344 17.4818 13.5051C16.9569 12.9759 16.2438 12.6759 15.4983 12.6706C15.1282 12.6686 14.7614 12.7395 14.4187 12.8794C14.0761 13.0193 13.7645 13.2255 13.5017 13.486C13.2388 13.7466 13.03 14.0564 12.8872 14.3978C12.7444 14.7391 12.6703 15.1053 12.6693 15.4753C12.6682 16.2193 12.9612 16.9336 13.4844 17.4626C14.0076 17.9916 14.7186 18.2925 15.4627 18.2998C16.2103 18.3019 16.9283 18.0081 17.4599 17.4826C17.9915 16.9571 18.2934 16.2425 18.2997 15.4951Z" fill="#E4820B"/>
<path d="M11.2608 4.57694H7.54938C7.48357 4.58295 7.41735 4.58295 7.35155 4.57694C7.26619 4.56987 7.18687 4.53014 7.1301 4.46602C7.07334 4.4019 7.04353 4.31835 7.04688 4.23279C7.04248 4.14656 7.07182 4.062 7.12868 3.99703C7.18555 3.93205 7.26548 3.89175 7.35155 3.88467C7.41736 3.87871 7.48357 3.87871 7.54938 3.88467H14.98C15.0458 3.87871 15.1121 3.87871 15.1779 3.88467C15.2639 3.89175 15.3439 3.93205 15.4007 3.99703C15.4576 4.062 15.4869 4.14656 15.4825 4.23279C15.4859 4.31835 15.4561 4.4019 15.3993 4.46602C15.3425 4.53014 15.2632 4.56987 15.1779 4.57694C15.1121 4.58295 15.0458 4.58295 14.98 4.57694H11.2608Z" fill="#E4820B"/>
<path d="M11.2607 9.50199H7.54937C7.48367 9.50999 7.41724 9.50999 7.35154 9.50199C7.26581 9.49589 7.18589 9.45644 7.12893 9.39209C7.07197 9.32775 7.04251 9.24365 7.04687 9.15783C7.04346 9.07185 7.07314 8.98784 7.12982 8.92308C7.18649 8.85832 7.26584 8.81775 7.35154 8.80972C7.41735 8.80376 7.48356 8.80376 7.54937 8.80972H14.98C15.0458 8.80376 15.112 8.80376 15.1779 8.80972C15.2579 8.82209 15.3307 8.86291 15.3831 8.92468C15.4354 8.98645 15.4637 9.06502 15.4627 9.14597C15.4661 9.23153 15.4363 9.31508 15.3795 9.3792C15.3228 9.44332 15.2434 9.48306 15.1581 9.49013C15.0924 9.49812 15.0259 9.49812 14.9602 9.49013L11.2607 9.50199Z" fill="#E4820B"/>
<path d="M5.63035 4.22092C5.63035 4.40586 5.59392 4.58899 5.52313 4.75985C5.45234 4.93071 5.34858 5.08596 5.21779 5.21673C5.08699 5.3475 4.93171 5.45123 4.76081 5.52201C4.58991 5.59278 4.40675 5.62921 4.22177 5.62921C3.84886 5.63237 3.48992 5.48756 3.22365 5.22653C2.95737 4.96551 2.8055 4.60956 2.80132 4.23674C2.79975 4.05047 2.83515 3.86574 2.90549 3.69325C2.97582 3.52076 3.07968 3.36393 3.21106 3.23185C3.34243 3.09976 3.49871 2.99505 3.67084 2.92377C3.84297 2.85249 4.02754 2.81606 4.21386 2.81659C4.39917 2.81555 4.58286 2.85107 4.75441 2.92113C4.92597 2.99119 5.08201 3.09441 5.21359 3.22486C5.34518 3.35532 5.44972 3.51045 5.52124 3.68138C5.59275 3.8523 5.62983 4.03565 5.63035 4.22092ZM4.92606 4.22092C4.92717 4.03582 4.85573 3.85763 4.72705 3.72454C4.59836 3.59145 4.42267 3.51403 4.2376 3.50887C4.14411 3.50729 4.05125 3.52434 3.96443 3.55902C3.87761 3.5937 3.79856 3.64532 3.7319 3.71086C3.66524 3.7764 3.61229 3.85456 3.57616 3.94077C3.54003 4.02699 3.52142 4.11953 3.52144 4.21301C3.52246 4.39771 3.59604 4.57461 3.7263 4.70559C3.85656 4.83656 4.03308 4.91112 4.21781 4.9132C4.40095 4.91334 4.57702 4.84254 4.70908 4.71568C4.84113 4.58882 4.9189 4.41575 4.92606 4.23279V4.22092Z" fill="#E4820B"/>
<path d="M5.63038 9.14597C5.62934 9.51983 5.48005 9.87803 5.21526 10.142C4.95048 10.406 4.59179 10.5543 4.21785 10.5543C4.03235 10.5548 3.84857 10.5188 3.67699 10.4483C3.50541 10.3778 3.34941 10.2742 3.21787 10.1434C3.08634 10.0126 2.98186 9.85725 2.91039 9.68611C2.83892 9.51497 2.80187 9.33143 2.80135 9.14597C2.80031 8.96103 2.83571 8.77769 2.90554 8.60643C2.97537 8.43517 3.07825 8.27934 3.20831 8.14783C3.33838 8.01633 3.49308 7.91172 3.66358 7.83999C3.83408 7.76826 4.01704 7.7308 4.20202 7.72977C4.38932 7.72713 4.57527 7.76188 4.74898 7.83197C4.92269 7.90206 5.08067 8.00609 5.21368 8.13796C5.34668 8.26984 5.45205 8.42691 5.5236 8.59999C5.59515 8.77307 5.63145 8.95869 5.63038 9.14597ZM4.92609 9.14597C4.92299 8.96091 4.84755 8.78443 4.71591 8.6543C4.58428 8.52417 4.40692 8.45074 4.2218 8.44974C4.12811 8.45076 4.03556 8.47036 3.9495 8.50739C3.86345 8.54443 3.78559 8.59817 3.72046 8.6655C3.65532 8.73283 3.60419 8.81242 3.57003 8.89965C3.53588 8.98687 3.51937 9.08001 3.52147 9.17366C3.52766 9.35869 3.60609 9.53394 3.73996 9.66186C3.87382 9.78978 4.05247 9.86019 4.23763 9.85802C4.42237 9.85186 4.59748 9.77413 4.72596 9.64126C4.85443 9.50838 4.9262 9.33077 4.92609 9.14597Z" fill="#E4820B"/>
<path d="M4.21783 15.4753C4.03185 15.4764 3.84751 15.4406 3.67544 15.37C3.50337 15.2995 3.34698 15.1956 3.21529 15.0643C3.0836 14.933 2.97922 14.7769 2.90817 14.6051C2.83712 14.4332 2.80081 14.249 2.80134 14.0631C2.80288 13.878 2.84101 13.695 2.91353 13.5247C2.98605 13.3544 3.09154 13.2001 3.22391 13.0707C3.35629 12.9413 3.51295 12.8393 3.68488 12.7707C3.85681 12.702 4.04062 12.668 4.22574 12.6706C4.41072 12.6732 4.59339 12.7122 4.7633 12.7854C4.93321 12.8585 5.08704 12.9644 5.21601 13.0971C5.34497 13.2297 5.44654 13.3864 5.51493 13.5582C5.58331 13.7301 5.61716 13.9138 5.61454 14.0987C5.60632 14.4646 5.45592 14.813 5.1952 15.07C4.93448 15.327 4.58393 15.4724 4.21783 15.4753ZM4.92608 14.075C4.92716 13.8902 4.85559 13.7125 4.72681 13.58C4.59802 13.4476 4.42233 13.371 4.23761 13.3669C4.14413 13.3653 4.05127 13.3823 3.96445 13.417C3.87762 13.4517 3.79858 13.5033 3.73191 13.5689C3.66525 13.6344 3.61231 13.7126 3.57618 13.7988C3.54004 13.885 3.52144 13.9775 3.52145 14.071C3.52351 14.2561 3.59796 14.433 3.72885 14.5638C3.85975 14.6947 4.03668 14.7691 4.22178 14.7712C4.40556 14.7702 4.58177 14.6979 4.71319 14.5695C4.84461 14.441 4.92095 14.2665 4.92608 14.0829V14.075Z" fill="#E4820B"/>
<path d="M8.9975 13.7229H10.4694C10.7464 13.7229 10.9086 13.8574 10.9086 14.075C10.9086 14.2925 10.7464 14.427 10.4694 14.427H7.47813C7.20116 14.427 7.03894 14.2965 7.03894 14.075C7.03894 13.8534 7.20116 13.7269 7.47813 13.7229H8.9975Z" fill="#E4820B"/>
<path d="M15.1304 15.1312V14.166C15.1304 13.889 15.2609 13.7269 15.4786 13.7269C15.6962 13.7269 15.8347 13.8851 15.8347 14.158C15.8347 14.431 15.8347 14.787 15.8347 15.1312C16.1828 15.1312 16.5152 15.1312 16.8476 15.1312C17.1206 15.1312 17.2986 15.3448 17.2432 15.5703C17.2216 15.6555 17.1693 15.7297 17.0962 15.7787C17.0232 15.8276 16.9346 15.8478 16.8476 15.8353H15.8386C15.8386 16.1953 15.8386 16.5355 15.8386 16.8757C15.8408 16.9238 15.8331 16.9717 15.8158 17.0166C15.7985 17.0615 15.7722 17.1024 15.7383 17.1366C15.7045 17.1708 15.664 17.1976 15.6192 17.2153C15.5745 17.2331 15.5266 17.2413 15.4786 17.2397C15.4328 17.2386 15.3877 17.2286 15.3459 17.2102C15.304 17.1917 15.2662 17.1652 15.2346 17.1321C15.203 17.0991 15.1783 17.0601 15.1617 17.0175C15.1452 16.9748 15.1372 16.9293 15.1383 16.8836C15.1383 16.7887 15.1383 16.6937 15.1383 16.5988V15.8353H14.1808C13.8998 15.8353 13.7376 15.7087 13.7337 15.4912C13.7297 15.2736 13.8919 15.1351 14.1847 15.1312H15.1304Z" fill="#E4820B"/>
</g>
<defs>
<clipPath id="clip0_2_346">
<rect width="19" height="19" fill="white"/>
</clipPath>
</defs>
</svg>
