<svg width="16" height="16" viewBox="0 0 16 16" fill="none" xmlns="http://www.w3.org/2000/svg">
<g clip-path="url(#clip0_2_432)">
<path d="M15.8553 6.23228L11.7221 2.09897C11.5293 1.90613 11.2165 1.90613 11.0237 2.09897L9.01779 4.10488C8.82495 4.29772 8.82495 4.61041 9.01779 4.80325L9.39557 5.18103L8.33913 5.27359C8.2226 5.28381 8.1092 5.30778 7.99973 5.34431C7.89054 5.30788 7.77688 5.28378 7.66085 5.27359L6.60438 5.18103L6.98216 4.80325C7.17501 4.61041 7.17501 4.29772 6.98216 4.10488L4.97626 2.09897C4.78345 1.90613 4.47073 1.90613 4.27788 2.09897L0.144633 6.23228C-0.0482109 6.42509 -0.0482109 6.73781 0.144633 6.93066L2.15054 8.93656C2.34329 9.12931 2.6561 9.12937 2.84891 8.93656L3.29573 8.48975L3.3881 9.54597C3.41835 9.89241 3.57054 10.2187 3.81645 10.4646L6.79066 13.4384C7.60707 14.2548 8.46913 14.1786 9.02716 13.6207C9.29157 13.3562 12.1729 10.4753 12.1838 10.4644C12.4296 10.2185 12.5817 9.89234 12.6119 9.54597L12.7043 8.48972L13.1511 8.93653C13.3439 9.12928 13.6567 9.12934 13.8495 8.93653L15.8554 6.93062C16.0482 6.73781 16.0482 6.42509 15.8553 6.23228ZM2.49973 7.889L1.1922 6.58147L4.62713 3.14656L5.93463 4.45406C1.78866 8.60003 2.8476 7.54109 2.49973 7.889ZM11.037 10.2127C11.037 10.2128 11.0369 10.2128 11.0369 10.2129C10.8557 10.3943 10.5623 10.3943 10.3807 10.2128C10.3804 10.2124 10.38 10.2122 10.3797 10.2118L9.5912 9.42328C9.39832 9.23044 9.08566 9.23047 8.89282 9.42328C8.69998 9.61613 8.69998 9.92881 8.89282 10.1217L9.68235 10.9112C9.68251 10.9113 9.68269 10.9115 9.68285 10.9116C9.86369 11.093 9.86413 11.3861 9.68219 11.5676C9.50104 11.749 9.2076 11.7491 9.02598 11.5675C9.02576 11.5673 9.02551 11.5671 9.02532 11.5669L8.23644 10.778C8.04363 10.5852 7.73091 10.5852 7.53807 10.778C7.34523 10.9708 7.34523 11.2835 7.53807 11.4764L8.3276 12.2659C8.32769 12.266 8.32779 12.2661 8.32791 12.2662C8.50819 12.4469 8.51019 12.74 8.3271 12.9227C8.21863 13.0315 8.06298 13.0789 7.91073 13.0497C7.74482 13.0179 7.68604 12.9371 7.48895 12.74L4.5147 9.76612C4.43273 9.68416 4.38201 9.57541 4.37191 9.45991L4.20735 7.57816C4.41373 7.37175 5.36329 6.42197 5.69279 6.09263L7.57457 6.2575C7.68998 6.26759 7.7986 6.31825 7.88048 6.40006C8.60323 7.12253 10.8509 9.37028 11.0368 9.55628C11.2179 9.73737 11.2179 10.0319 11.037 10.2127ZM11.685 8.80766C11.5304 8.65303 9.83654 6.95906 9.07769 6.20038L10.3071 6.09266C10.6582 6.44356 11.6887 7.47434 11.7925 7.57819L11.685 8.80766ZM13.5003 7.889C13.0377 7.42647 10.1675 4.55625 10.0654 4.45409L11.3729 3.14659L14.8078 6.58144L13.5003 7.889Z" fill="white"/>
</g>
<defs>
<clipPath id="clip0_2_432">
<rect width="16" height="16" fill="white"/>
</clipPath>
</defs>
</svg>
