<svg width="9" height="9" viewBox="0 0 9 9" fill="none" xmlns="http://www.w3.org/2000/svg">
<g clip-path="url(#clip0_2_336)">
<path fill-rule="evenodd" clip-rule="evenodd" d="M8.11758 6.13732L6.84498 5.99195C6.69542 5.97443 6.54382 5.99101 6.40158 6.04046C6.25934 6.0899 6.13015 6.17092 6.0237 6.27743L5.10166 7.19948C3.67941 6.47606 2.52345 5.31992 1.80026 3.89755L2.72492 2.97079C2.83144 2.86434 2.91246 2.73514 2.9619 2.5929C3.01135 2.45066 3.02793 2.29907 3.01041 2.1495L2.86714 0.886881C2.83868 0.642476 2.72137 0.417061 2.53752 0.25353C2.35367 0.0899991 2.11611 -0.000234118 1.87006 4.56209e-07H1.00364C0.437402 4.56209e-07 -0.0333267 0.472304 0.0013089 1.03697C0.131627 3.10563 1.0122 5.05568 2.47787 6.52134C3.94353 7.98701 5.89358 8.86758 7.96224 8.9979C8.52848 9.03306 8.99973 8.56233 8.99973 7.99609V7.12915C9.001 6.88411 8.91161 6.64726 8.74876 6.46416C8.58591 6.28105 8.36109 6.16464 8.11758 6.13732ZM1.7735 1.00181C1.80194 1.44121 1.87742 1.87629 1.99863 2.29959L1.39775 2.90099C1.18829 2.2873 1.0602 1.6488 1.01676 1.00181H1.7735ZM8.01839 7.24933C7.57672 7.21977 7.13932 7.14432 6.71326 7.0242L6.11186 7.62035C6.72819 7.8251 7.36787 7.95134 8.01577 7.99609L8.01839 7.24933Z" fill="#AB7711"/>
</g>
<defs>
<clipPath id="clip0_2_336">
<rect width="9" height="9" fill="white"/>
</clipPath>
</defs>
</svg>
