<svg width="13" height="13" viewBox="0 0 13 13" fill="none" xmlns="http://www.w3.org/2000/svg">
<g clip-path="url(#clip0_2_357)">
<path fill-rule="evenodd" clip-rule="evenodd" d="M10.9744 10.0133C11.7516 9.0232 12.1783 7.80334 12.1879 6.54476C12.1974 5.28619 11.7892 4.05999 11.0272 3.05825C10.4651 2.31867 9.73033 1.72805 8.8872 1.33803C8.04406 0.947997 7.11823 0.770431 6.19062 0.820852C5.26301 0.871272 4.36188 1.14814 3.56599 1.62726C2.7701 2.10638 2.10368 2.77316 1.625 3.56931V1.625H0.8125V4.46875L1.21875 4.875H4.0625V4.0625H2.28394C2.82672 3.12415 3.66639 2.39317 4.67055 1.98481C5.67472 1.57646 6.78624 1.51396 7.82985 1.80718C8.87346 2.1004 9.78978 2.73265 10.4343 3.60424C11.0789 4.47583 11.415 5.53717 11.3896 6.62089C11.3643 7.70461 10.9789 8.74907 10.2943 9.58956C9.60969 10.43 8.6648 11.0188 7.60862 11.2628C6.55244 11.5069 5.44505 11.3925 4.46109 10.9377C3.47712 10.4828 2.67255 9.71333 2.17425 8.75063L1.45356 9.126C1.89241 9.97012 2.53601 10.6907 3.32541 11.2217C4.11482 11.7527 5.02482 12.0772 5.9721 12.1654C6.91937 12.2537 7.87366 12.103 8.74759 11.727C9.62152 11.351 10.3872 10.7617 10.9744 10.0133ZM8.24362 9.22513L8.81888 8.65069L6.5 6.331V3.25H5.6875V6.5L5.80612 6.78762L8.24362 9.22513Z" fill="white"/>
</g>
<defs>
<clipPath id="clip0_2_357">
<rect width="13" height="13" fill="white"/>
</clipPath>
</defs>
</svg>
