<svg width="20" height="20" viewBox="0 0 20 20" fill="none" xmlns="http://www.w3.org/2000/svg">
<g clip-path="url(#clip0_2_560)">
<path d="M16.7358 11.3871C16.7358 11.4884 16.7809 11.5856 16.8611 11.6573C16.9414 11.7289 17.0502 11.7692 17.1636 11.7692C17.2771 11.7692 17.3859 11.7289 17.4662 11.6573C17.5464 11.5856 17.5915 11.4884 17.5915 11.3871C17.5915 11.2857 17.5464 11.1885 17.4662 11.1169C17.3859 11.0452 17.2771 11.005 17.1636 11.005C17.0502 11.005 16.9414 11.0452 16.8611 11.1169C16.7809 11.1885 16.7358 11.2857 16.7358 11.3871Z" fill="white"/>
<path d="M15.8674 7.45058e-09C16.1198 0.0496752 16.3807 0.0840663 16.6289 0.152847C18.5198 0.676348 19.6877 1.81506 19.9529 3.56133C20.2182 5.3076 19.4267 6.65648 17.784 7.61177C17.7269 7.63661 17.6794 7.67601 17.6474 7.72498C17.6154 7.77396 17.6004 7.8303 17.6043 7.88689C17.6043 8.41421 17.6043 8.94154 17.6043 9.46886C17.6086 9.52739 17.6086 9.5861 17.6043 9.64463C17.6043 9.74597 17.5592 9.84317 17.479 9.91483C17.3987 9.98649 17.2899 10.0267 17.1765 10.0267C17.063 10.0267 16.9542 9.98649 16.874 9.91483C16.7937 9.84317 16.7487 9.74597 16.7487 9.64463C16.7487 9.19373 16.7487 8.74666 16.7487 8.29576V8.02446C16.0643 8.19706 15.3462 8.23487 14.6438 8.13527V16.347C14.6736 16.6732 14.5768 16.9987 14.3695 17.2687C14.1623 17.5387 13.8573 17.7368 13.5059 17.8296C13.3091 17.8761 13.1061 17.8979 12.9027 17.8945H3.84171C3.84101 18.1977 3.86675 18.5005 3.91871 18.8002C3.95681 18.9248 4.04187 19.0339 4.15954 19.1091C4.27721 19.1843 4.42031 19.2209 4.5647 19.2128C4.75293 19.2128 4.94117 19.2128 5.12941 19.2128H15.8674C16.4663 19.2128 16.723 18.9721 16.723 18.4486V13.3473C16.723 13.2786 16.723 13.206 16.723 13.1334C16.7288 13.0417 16.7713 12.955 16.8428 12.889C16.9142 12.8231 17.0099 12.7823 17.1123 12.7742C17.2187 12.7649 17.3251 12.7915 17.4106 12.8488C17.4961 12.9061 17.5545 12.9899 17.5743 13.0837C17.5922 13.159 17.5994 13.236 17.5957 13.313V18.4295C17.6287 18.7845 17.5124 19.1377 17.2696 19.4203C17.0268 19.7029 16.6748 19.8946 16.2823 19.958C16.2823 19.958 16.261 19.958 16.2481 19.9809H4.32085C4.32085 19.9809 4.32085 19.9809 4.28662 19.958C3.89441 19.8893 3.54519 19.692 3.30767 19.4049C3.07015 19.1177 2.96154 18.7616 3.0032 18.4066V17.8793H1.71978C1.49064 17.8947 1.26047 17.8657 1.04501 17.7944C0.829556 17.723 0.633891 17.611 0.471404 17.4658C0.308918 17.3207 0.183443 17.1459 0.103558 16.9535C0.0236737 16.761 -0.00873558 16.5555 0.00854904 16.3508C0.00854904 11.6788 0.00854904 7.00548 0.00854904 2.33091C0.00541488 2.18163 0.0241132 2.03262 0.0641661 1.88766C0.152238 1.56912 0.361921 1.28799 0.657098 1.09269C0.952276 0.897397 1.31447 0.800158 1.68128 0.81773C5.2549 0.81773 8.81996 0.81773 12.3765 0.81773C12.518 0.814356 12.6557 0.775997 12.7743 0.706916C13.2747 0.402108 13.8349 0.184317 14.4257 0.0649592L14.9348 -0.0267481L15.8674 7.45058e-09ZM11.7433 1.63164H1.68983C1.52944 1.61394 1.36705 1.64504 1.22888 1.71992C1.09072 1.7948 0.984834 1.90908 0.928336 2.04432C0.887237 2.1682 0.869882 2.2974 0.877001 2.42644V16.3508C0.877001 16.4043 0.877001 16.4578 0.877001 16.5075C0.87804 16.5927 0.898324 16.677 0.936646 16.7551C0.974967 16.8332 1.03054 16.9036 1.10003 16.9621C1.16952 17.0206 1.25151 17.066 1.34109 17.0956C1.43067 17.1251 1.526 17.1382 1.62139 17.1341H13.0139C13.1073 17.1377 13.2006 17.1247 13.2883 17.0958C13.376 17.0669 13.4565 17.0227 13.5249 16.9658C13.5934 16.909 13.6485 16.8405 13.6871 16.7644C13.7257 16.6884 13.747 16.6062 13.7497 16.5227C13.7497 16.4654 13.7497 16.4043 13.7497 16.347V8.14673C13.7562 8.10746 13.7562 8.06755 13.7497 8.02828C13.7497 7.98242 13.6984 7.91364 13.6556 7.89836C12.786 7.57384 12.0474 7.02078 11.538 6.31257C11.4082 6.33743 11.2767 6.35403 11.1444 6.36225H3.4909C3.09304 6.36225 2.93475 6.21704 2.93475 5.86167C2.93475 5.40695 2.93475 4.95224 2.93475 4.4937C2.93475 4.03516 3.05454 3.92816 3.56363 3.92816H10.8364C10.8809 3.09993 11.1962 2.30151 11.7433 1.63164ZM15.4011 7.42453C16.389 7.42555 17.337 7.07652 18.0371 6.454C18.7373 5.83149 19.1324 4.98633 19.1358 4.10394C19.1324 3.22485 18.7403 2.38257 18.0447 1.7606C17.3492 1.13863 16.4067 0.787368 15.4225 0.783341C14.9334 0.781831 14.4488 0.866631 13.9965 1.03288C13.5442 1.19912 13.1331 1.44354 12.7869 1.75209C12.4407 2.06063 12.1661 2.42723 11.9789 2.83083C11.7917 3.23443 11.6957 3.66708 11.6962 4.10394C11.6951 4.98294 12.0847 5.8264 12.7793 6.44902C13.474 7.07165 14.417 7.42251 15.4011 7.42453ZM10.8107 4.72679H3.82459V5.57127H10.8107V4.72679Z" fill="#E4820B"/>
<path d="M16.7358 11.3871C16.7358 11.2857 16.7809 11.1885 16.8611 11.1169C16.9414 11.0452 17.0502 11.005 17.1636 11.005C17.2771 11.005 17.3859 11.0452 17.4662 11.1169C17.5464 11.1885 17.5915 11.2857 17.5915 11.3871C17.5915 11.4884 17.5464 11.5856 17.4662 11.6573C17.3859 11.7289 17.2771 11.7692 17.1636 11.7692C17.0502 11.7692 16.9414 11.7289 16.8611 11.6573C16.7809 11.5856 16.7358 11.4884 16.7358 11.3871Z" fill="#E4820B"/>
<path d="M7.31126 12.2048H11.0717C11.4995 12.2048 11.6963 12.0711 11.6877 11.8227C11.6792 11.5743 11.4781 11.4406 11.076 11.4406H3.55511C3.46833 11.433 3.38093 11.433 3.29415 11.4406C3.1937 11.456 3.10274 11.503 3.03764 11.5731C2.97254 11.6432 2.93759 11.7317 2.93907 11.8227C2.93818 11.916 2.97554 12.0064 3.0441 12.0767C3.11267 12.1471 3.20769 12.1927 3.31126 12.2048C3.39106 12.2086 3.47103 12.2086 3.55083 12.2048H7.31126ZM7.31126 8.5021H11.0717C11.1655 8.51173 11.2602 8.51173 11.354 8.5021C11.4498 8.48193 11.5348 8.43292 11.5948 8.36332C11.6548 8.29373 11.6861 8.20779 11.6834 8.11998C11.6842 8.02611 11.6463 7.93526 11.5768 7.86478C11.5074 7.79431 11.4113 7.74913 11.307 7.73787C11.2214 7.73787 11.1316 7.73787 11.046 7.73787H3.57222C3.49242 7.73412 3.41245 7.73412 3.33265 7.73787C3.22446 7.74465 3.12318 7.78788 3.04932 7.85882C2.97546 7.92976 2.93452 8.02311 2.93479 8.11998C2.93347 8.21157 2.96903 8.30054 3.03499 8.37067C3.10095 8.44081 3.19292 8.48745 3.29415 8.5021C3.38102 8.5078 3.46824 8.5078 3.55511 8.5021H7.31126ZM7.31126 13.2824H6.17329C5.25351 13.2824 4.338 13.2824 3.41821 13.2824C3.35754 13.2753 3.29588 13.2799 3.23737 13.2959C3.17887 13.3119 3.12489 13.3389 3.07907 13.3751C3.03325 13.4113 2.99666 13.4559 2.97177 13.5058C2.94688 13.5557 2.93427 13.6099 2.93479 13.6645C2.93427 13.7191 2.94688 13.7733 2.97177 13.8232C2.99666 13.8731 3.03325 13.9177 3.07907 13.9539C3.12489 13.9901 3.17887 14.0171 3.23737 14.0331C3.29588 14.0491 3.35754 14.0537 3.41821 14.0466H11.0717C11.1514 14.0524 11.2315 14.0524 11.3113 14.0466C11.3846 14.0391 11.4545 14.0148 11.5142 13.976C11.5738 13.9372 11.6213 13.8853 11.6518 13.8253C11.6824 13.7653 11.6951 13.6992 11.6886 13.6336C11.6822 13.5679 11.6568 13.5048 11.615 13.4505C11.5633 13.3871 11.4937 13.337 11.4133 13.3055C11.3329 13.2739 11.2445 13.262 11.1572 13.2709L7.31126 13.2824ZM7.31126 10.3554H11.2685C11.3819 10.3554 11.4908 10.3151 11.571 10.2434C11.6512 10.1718 11.6963 10.0746 11.6963 9.97325C11.6966 9.87637 11.6556 9.78303 11.5817 9.71209C11.5079 9.64115 11.4066 9.59791 11.2984 9.59113C11.2329 9.58727 11.1672 9.58727 11.1016 9.59113H3.52944C3.45685 9.58541 3.38384 9.58541 3.31126 9.59113C3.20769 9.60326 3.11267 9.64881 3.0441 9.7192C2.97554 9.78959 2.93818 9.87995 2.93907 9.97325C2.9388 10.0701 2.97974 10.1635 3.0536 10.2344C3.12746 10.3054 3.22874 10.3486 3.33693 10.3554H7.31554H7.31126Z" fill="white"/>
<path d="M7.3112 12.2048H3.55077C3.47097 12.2086 3.391 12.2086 3.3112 12.2048C3.20763 12.1927 3.11261 12.1471 3.04405 12.0767C2.97548 12.0064 2.93812 11.916 2.93901 11.8227C2.93753 11.7317 2.97248 11.6432 3.03758 11.5731C3.10268 11.503 3.19364 11.4561 3.29409 11.4406C3.38087 11.433 3.46827 11.433 3.55505 11.4406H11.0759C11.478 11.4406 11.6834 11.5667 11.6877 11.8227C11.6919 12.0787 11.4909 12.2048 11.0716 12.2048H7.3112Z" fill="#E4820B"/>
<path d="M7.31554 8.5021H3.55511C3.46824 8.5078 3.38102 8.5078 3.29415 8.5021C3.19292 8.48745 3.10095 8.44081 3.03499 8.37067C2.96903 8.30054 2.93347 8.21157 2.93479 8.11998C2.93452 8.02311 2.97546 7.92976 3.04932 7.85882C3.12318 7.78788 3.22446 7.74465 3.33265 7.73787C3.41245 7.73412 3.49242 7.73412 3.57222 7.73787H11.0503C11.1359 7.73787 11.2257 7.73787 11.3113 7.73787C11.4156 7.74913 11.5117 7.79431 11.5811 7.86478C11.6505 7.93526 11.6885 8.02611 11.6877 8.11998C11.6904 8.20779 11.659 8.29373 11.599 8.36332C11.539 8.43292 11.454 8.48193 11.3583 8.5021C11.2645 8.51173 11.1698 8.51173 11.076 8.5021H7.31554Z" fill="#E4820B"/>
<path d="M7.31551 13.2824H11.1658C11.253 13.2735 11.3414 13.2854 11.4218 13.3169C11.5022 13.3485 11.5719 13.3985 11.6235 13.462C11.6653 13.5163 11.6907 13.5794 11.6972 13.645C11.7036 13.7107 11.6909 13.7767 11.6604 13.8367C11.6298 13.8967 11.5824 13.9487 11.5227 13.9874C11.463 14.0262 11.3931 14.0506 11.3198 14.0581C11.2401 14.0639 11.1599 14.0639 11.0802 14.0581H3.42246C3.3618 14.0652 3.30013 14.0606 3.24163 14.0446C3.18312 14.0286 3.12914 14.0016 3.08332 13.9654C3.0375 13.9291 3.00091 13.8846 2.97602 13.8346C2.95113 13.7847 2.93852 13.7306 2.93904 13.676C2.93852 13.6213 2.95113 13.5672 2.97602 13.5173C3.00091 13.4674 3.0375 13.4228 3.08332 13.3866C3.12914 13.3503 3.18312 13.3233 3.24163 13.3073C3.30013 13.2913 3.3618 13.2867 3.42246 13.2938C4.34225 13.2938 5.25776 13.2938 6.17754 13.2938L7.31551 13.2824Z" fill="#E4820B"/>
<path d="M7.31551 10.3554H3.3369C3.22871 10.3486 3.12744 10.3054 3.05358 10.2344C2.97971 10.1635 2.93878 10.0701 2.93904 9.97325C2.93816 9.87995 2.97552 9.78959 3.04408 9.7192C3.11264 9.64881 3.20766 9.60326 3.31123 9.59113C3.38382 9.58541 3.45683 9.58541 3.52941 9.59113H11.0931C11.1586 9.58727 11.2243 9.58727 11.2898 9.59113C11.398 9.59792 11.4993 9.64115 11.5732 9.71209C11.647 9.78303 11.688 9.87638 11.6877 9.97325C11.6877 10.0746 11.6426 10.1718 11.5624 10.2434C11.4822 10.3151 11.3734 10.3554 11.2599 10.3554H7.30268H7.31551Z" fill="#E4820B"/>
<path d="M14.9818 4.92167C14.9818 4.50134 14.9818 4.07719 14.9818 3.65686C14.9818 3.37792 15.1444 3.20978 15.4096 3.20214C15.474 3.20115 15.5378 3.21252 15.5968 3.23547C15.6558 3.25842 15.7086 3.29243 15.7516 3.33518C15.7946 3.37793 15.8268 3.42844 15.846 3.48328C15.8653 3.53812 15.8711 3.59601 15.8631 3.65304C15.8631 4.50389 15.8631 5.35601 15.8631 6.2094C15.8724 6.26417 15.8683 6.32008 15.851 6.37328C15.8337 6.42648 15.8037 6.47568 15.763 6.51748C15.7223 6.55928 15.6719 6.59268 15.6153 6.61536C15.5588 6.63804 15.4973 6.64946 15.4353 6.64884C15.1744 6.64884 15.0075 6.48453 15.0075 6.2094C14.9776 5.78143 14.9818 5.34964 14.9818 4.92167Z" fill="#E4820B"/>
<path d="M14.9818 2.32709C14.9818 2.22575 15.0269 2.12856 15.1071 2.0569C15.1873 1.98523 15.2962 1.94497 15.4096 1.94497C15.5231 1.94497 15.6319 1.98523 15.7121 2.0569C15.7924 2.12856 15.8374 2.22575 15.8374 2.32709C15.8374 2.42843 15.7924 2.52563 15.7121 2.59729C15.6319 2.66895 15.5231 2.70921 15.4096 2.70921C15.2962 2.70921 15.1873 2.66895 15.1071 2.59729C15.0269 2.52563 14.9818 2.42843 14.9818 2.32709Z" fill="#E4820B"/>
</g>
<defs>
<clipPath id="clip0_2_560">
<rect width="20" height="20" fill="white"/>
</clipPath>
</defs>
</svg>
