<svg width="11" height="11" viewBox="0 0 11 11" fill="none" xmlns="http://www.w3.org/2000/svg">
<g clip-path="url(#clip0_2_693)">
<path d="M10.6944 2.66439V9.87905C10.6878 9.90077 10.6798 9.922 10.6753 9.94396C10.578 10.4097 10.2982 10.718 9.84138 10.8705C9.77275 10.8932 9.70085 10.9063 9.63046 10.9239H1.48099L1.35529 10.8937C0.791164 10.7605 0.418095 10.2972 0.417089 9.72009C0.415414 8.64937 0.415414 7.57873 0.417089 6.50817C0.417089 5.27965 0.417089 4.05129 0.417089 2.82309C0.417089 2.24627 0.789908 1.77261 1.35655 1.65488C1.55943 1.61292 1.77512 1.6302 1.98504 1.62008C2.02325 1.61835 2.06046 1.62008 2.10697 1.62008V0.837891H2.90766V1.6139H8.20782V0.837891H9.01228V1.61934C9.18599 1.61934 9.35267 1.6144 9.51884 1.61934C9.90649 1.63291 10.218 1.79433 10.4558 2.0957C10.5878 2.26503 10.6489 2.461 10.6944 2.66439ZM9.89141 4.54395H1.22004V9.66357C1.22004 9.98444 1.37088 10.1345 1.6977 10.1345H9.41552C9.74233 10.1345 9.89317 9.98642 9.89317 9.66555V4.54321L9.89141 4.54395ZM1.22055 3.73955H9.88889C9.88889 3.41177 9.89669 3.0872 9.88563 2.76287C9.87984 2.59824 9.77878 2.46372 9.61437 2.43459C9.41778 2.39979 9.21214 2.40991 9.00398 2.39856V3.18839H8.20304V2.41337H2.90263V3.19111H2.10169V2.41016C1.92093 2.41016 1.74973 2.40152 1.58105 2.41238C1.48285 2.41958 1.3911 2.46315 1.3244 2.53428C1.2577 2.60541 1.22102 2.69877 1.2218 2.79545C1.21703 3.10867 1.22055 3.41942 1.22055 3.73955Z" fill="#AB7711"/>
<path d="M9.63062 10.9231C9.70101 10.9055 9.7729 10.8925 9.84153 10.8698C10.2988 10.7172 10.5781 10.4089 10.6754 9.94318C10.6799 9.92121 10.688 9.89999 10.6945 9.87827V10.9231H9.63062Z" fill="white"/>
<path d="M1.95001 5.36855H2.7404V6.14456H1.95001V5.36855Z" fill="#AB7711"/>
<path d="M4.34733 5.37151V6.14727H3.55695V5.37151H4.34733Z" fill="#AB7711"/>
<path d="M5.95324 5.37126V6.14752H5.16235V5.37126H5.95324Z" fill="#AB7711"/>
<path d="M6.76471 6.1458V5.36954H7.55509V6.1458H6.76471Z" fill="#AB7711"/>
<path d="M9.1623 6.14801H8.37115V5.37175H9.1623V6.14801Z" fill="#AB7711"/>
<path d="M2.7376 7.7262H1.94897V6.94649H2.7376V7.7262Z" fill="#AB7711"/>
<path d="M3.55566 6.94551H4.3463V7.72177H3.55566V6.94551Z" fill="#AB7711"/>
<path d="M5.9532 7.72547H5.16156V6.94724H5.9532V7.72547Z" fill="#AB7711"/>
<path d="M7.55614 7.72546H6.7655V6.9492H7.55614V7.72546Z" fill="#AB7711"/>
<path d="M8.37317 6.94576H9.16381V7.72177H8.37317V6.94576Z" fill="#AB7711"/>
<path d="M2.74137 8.52345V9.29971H1.94897V8.52345H2.74137Z" fill="#AB7711"/>
<path d="M3.55292 9.30144V8.52518H4.34431V9.30144H3.55292Z" fill="#AB7711"/>
<path d="M5.95322 8.5237V9.29946H5.16107V8.5237H5.95322Z" fill="#AB7711"/>
<path d="M6.76721 8.52246H7.55785V9.29872H6.76721V8.52246Z" fill="#AB7711"/>
</g>
<defs>
<clipPath id="clip0_2_693">
<rect width="10.2778" height="10.0855" fill="white" transform="translate(0.416748 0.837601)"/>
</clipPath>
</defs>
</svg>
