<svg width="24" height="25" viewBox="0 0 24 25" fill="none" xmlns="http://www.w3.org/2000/svg">
<path d="M14.1569 0C14.6003 0.0730435 15.0541 0.12 15.4923 0.224348C17.2308 0.649416 18.7308 1.74465 19.6653 3.2713C20.3161 4.28334 20.6769 5.45451 20.7085 6.65739C20.7085 6.80348 20.7816 6.85043 20.9015 6.89217C21.6634 7.11798 22.3475 7.55135 22.8772 8.14383C23.4069 8.7363 23.7614 9.46449 23.9009 10.247C24.0938 11.2615 23.9263 12.3117 23.4272 13.2158C22.9281 14.1199 22.1288 14.8211 21.1676 15.1983C20.5968 15.4094 19.9921 15.5138 19.3836 15.5061H10.8811C11.0585 15.8296 11.1993 16.127 11.3714 16.4035C11.7049 16.9824 12.1854 17.463 12.7642 17.7965C12.8629 17.8748 12.9851 17.9174 13.1111 17.9174C13.237 17.9174 13.3593 17.8748 13.4579 17.7965C13.5727 17.7026 13.7083 17.64 13.8283 17.5565C14.0119 17.4154 14.2215 17.3118 14.4451 17.2516C14.6687 17.1915 14.9019 17.176 15.1315 17.206C15.3611 17.2361 15.5826 17.311 15.7832 17.4267C15.9838 17.5423 16.1597 17.6964 16.3008 17.88C16.9268 18.7148 17.5214 19.5809 18.0691 20.4887C18.6168 21.3965 18.3925 22.4087 17.5058 23.16C17.024 23.5881 16.4323 23.8731 15.7972 23.9828C15.1622 24.0925 14.5092 24.0226 13.9118 23.7809C12.4963 23.2423 11.2224 22.3875 10.1874 21.2817C8.58539 19.6958 7.32655 17.7974 6.48903 15.7043C6.47398 15.6372 6.43352 15.5785 6.37614 15.5406C6.31876 15.5026 6.24891 15.4884 6.18126 15.5009C5.44883 15.5384 4.71459 15.484 3.99566 15.3391C2.97513 15.0876 2.05362 14.5354 1.3505 13.754C0.647391 12.9726 0.195078 11.998 0.0521618 10.9565C0.0521618 10.873 0.0156488 10.7896 0 10.7061V9.81913C0.0992183 9.31679 0.226346 8.82037 0.380789 8.33217C0.796443 7.25744 1.55613 6.35058 2.54129 5.75313C3.52644 5.15567 4.68163 4.90125 5.82656 5.02956C6.23864 5.08696 6.64551 5.19652 7.07324 5.28522C7.11497 5.13913 7.16192 4.97739 7.21409 4.81565C7.26755 4.63859 7.33024 4.46444 7.40187 4.29391C7.79871 3.29592 8.42788 2.40702 9.23712 1.70105C10.0464 0.995079 11.0123 0.492407 12.0548 0.234781C12.4929 0.119998 12.9572 0.0782609 13.4058 0H14.1569ZM10.9541 14.16H19.5401C19.7148 14.1598 19.8892 14.1459 20.0617 14.1183C20.7804 14.0084 21.4369 13.6473 21.9145 13.0989C22.392 12.5506 22.6597 11.8506 22.6699 11.1235C22.6758 10.4141 22.4366 9.72442 21.9927 9.17111C21.5489 8.6178 20.9275 8.23482 20.2339 8.08696C19.5245 7.9513 19.368 7.69043 19.4045 7.04348C19.4553 6.18058 19.2753 5.31972 18.8829 4.54957C18.4348 3.58091 17.714 2.76395 16.8089 2.19868C15.9037 1.63342 14.8534 1.34438 13.7866 1.36696C12.4196 1.34044 11.0957 1.84544 10.0935 2.77565C9.06859 3.66862 8.41228 4.91085 8.25212 6.26087C8.24605 6.38028 8.20991 6.49622 8.14706 6.59793C8.0842 6.69963 7.99667 6.7838 7.89259 6.84261C7.78852 6.90143 7.67127 6.93299 7.55173 6.93435C7.4322 6.93572 7.31426 6.90685 7.20887 6.85043L6.91676 6.70435C6.37815 6.44839 5.78616 6.32496 5.19017 6.34435C4.49223 6.34828 3.80899 6.54532 3.21609 6.91366C2.62319 7.28199 2.14377 7.80726 1.83091 8.4313C1.4777 9.04664 1.30727 9.74996 1.3396 10.4588C1.37194 11.1676 1.60571 11.8524 2.01348 12.433C2.43468 13.0676 3.02758 13.5694 3.72302 13.8798C4.41847 14.1901 5.1878 14.2964 5.94132 14.1861C5.94132 14.1078 5.94132 14.0348 5.89959 13.9565C5.65958 13.0325 5.59063 12.0723 5.69615 11.1235C5.7221 10.7191 5.82761 10.3238 6.00664 9.96031C6.18566 9.59681 6.43468 9.27224 6.7394 9.00522C7.1346 8.71283 7.56157 8.46605 8.01217 8.26956C8.39816 8.06971 8.84462 8.02045 9.26488 8.13132C9.68515 8.24219 10.0492 8.5053 10.2865 8.86956C10.7907 9.6 11.2862 10.3391 11.7731 11.087C12.0401 11.4544 12.1706 11.9035 12.142 12.3569C12.1134 12.8102 11.9276 13.2394 11.6166 13.5704C11.4073 13.7795 11.1861 13.9763 10.9541 14.16ZM6.95849 12C7.04477 13.1995 7.33772 14.3751 7.82439 15.4748C8.66895 17.4471 9.9121 19.2234 11.4758 20.6922C12.2629 21.4659 13.193 22.079 14.2143 22.4974C14.5364 22.6518 14.8922 22.7223 15.2488 22.7022C15.6054 22.6822 15.9512 22.5722 16.2539 22.3826C16.3999 22.2939 16.5512 22.2156 16.6972 22.1217C16.7797 22.0794 16.8522 22.0201 16.9099 21.9476C16.9676 21.8751 17.0092 21.7911 17.0319 21.7012C17.0546 21.6114 17.0579 21.5177 17.0416 21.4265C17.0252 21.3353 16.9896 21.2486 16.9372 21.1722C16.4469 20.4209 15.9478 19.6748 15.4401 18.9339C15.3381 18.7922 15.1868 18.6939 15.0159 18.6581C14.8451 18.6224 14.667 18.6519 14.5168 18.7409C14.3954 18.8095 14.2786 18.8862 14.1674 18.9704C13.9114 19.1676 13.604 19.2868 13.282 19.3136C12.96 19.3404 12.6372 19.2738 12.3521 19.1217C11.7158 18.8332 11.163 18.3881 10.7455 17.8278C10.1261 17.0898 9.69955 16.2096 9.50402 15.2661C9.3721 14.8189 9.4011 14.3396 9.586 13.9115C9.7709 13.4835 10.1 13.1339 10.516 12.9235C10.6095 12.8793 10.6914 12.8139 10.755 12.7324C10.8187 12.6509 10.8625 12.5557 10.8827 12.4542C10.903 12.3528 10.8993 12.2481 10.8718 12.1483C10.8444 12.0486 10.794 11.9567 10.7246 11.88C10.3595 11.327 9.98913 10.7791 9.61878 10.2261C9.50924 10.0643 9.40491 9.90261 9.29016 9.74087C9.25076 9.6657 9.19574 9.59984 9.12879 9.5477C9.06184 9.49557 8.98451 9.45836 8.90199 9.4386C8.81948 9.41883 8.73369 9.41695 8.65039 9.43309C8.56709 9.44923 8.48821 9.48302 8.41904 9.53217C8.25212 9.62609 8.0852 9.73043 7.89741 9.82435C7.72095 9.91864 7.5659 10.0484 7.44201 10.2056C7.31813 10.3627 7.2281 10.5438 7.17757 10.7374C7.08889 11.1339 7.03673 11.5565 6.95849 12Z" fill="#9B9B9B"/>
</svg>
