<svg width="12" height="11" viewBox="0 0 12 11" fill="none" xmlns="http://www.w3.org/2000/svg">
<g clip-path="url(#clip0_2_674)">
<path d="M6.32128 10.9232H5.67891C5.65643 10.9179 5.63448 10.9106 5.61173 10.9074C5.37727 10.8738 5.1404 10.8515 4.90862 10.8061C2.91596 10.4147 1.2667 8.73486 0.941501 6.76898C0.909918 6.57856 0.887971 6.38683 0.861206 6.19563V5.56529C0.893859 5.34204 0.918483 5.11722 0.960772 4.89555C1.34298 2.88633 3.05219 1.24666 5.10454 0.916515C5.2951 0.885786 5.48728 0.863986 5.67891 0.839035H6.32128C6.34804 0.844551 6.37266 0.85138 6.39863 0.85532C6.66253 0.895504 6.92991 0.919404 7.18953 0.97771C9.16881 1.42158 10.7263 3.0476 11.0611 5.01242C11.0924 5.19627 11.1133 5.38196 11.139 5.5666V6.19694C11.1334 6.22321 11.1259 6.24737 11.1221 6.27311C11.0873 6.50633 11.0651 6.74219 11.0167 6.97279C10.605 8.92737 8.90223 10.5277 6.89485 10.8468C6.70482 10.8759 6.51265 10.8969 6.32128 10.9232ZM10.8178 5.88413C10.8213 3.27478 8.66616 1.15657 6.00411 1.15289C3.34206 1.14922 1.18613 3.26454 1.18239 5.87652C1.17864 8.4885 3.33456 10.6041 5.99608 10.608C8.6576 10.612 10.8141 8.49638 10.8178 5.88413Z" fill="#AB7711"/>
<path d="M6.10451 1.46799C6.89676 1.47665 7.71042 1.70962 8.44967 2.18185C8.49249 2.20811 8.54682 2.25066 8.55378 2.29242C8.56261 2.34495 8.54548 2.42716 8.50775 2.45473C8.48063 2.47028 8.45034 2.47973 8.41905 2.4824C8.38777 2.48508 8.35627 2.48093 8.32681 2.47023C8.2144 2.42217 8.11483 2.34626 8.00563 2.28796C5.57938 0.978947 2.5188 2.33129 1.92836 4.98477C1.63662 6.29798 1.94442 7.48171 2.81161 8.52414C2.83275 8.5504 2.85604 8.57325 2.87692 8.59899C2.9465 8.68488 2.9441 8.77417 2.87183 8.83537C2.79956 8.89657 2.70375 8.8879 2.63389 8.80412C2.50783 8.651 2.37828 8.49971 2.26721 8.33635C1.71772 7.53083 1.4664 6.63994 1.50842 5.67289C1.58871 3.8168 2.88869 2.18448 4.70042 1.65446C5.12946 1.52892 5.56814 1.46799 6.10451 1.46799Z" fill="#AB7711"/>
<path d="M10.4967 5.86568C10.5029 6.88781 10.1459 7.88011 9.48703 8.67183C8.82818 9.46355 7.90873 10.0052 6.88688 10.2035C5.53337 10.468 4.30057 10.162 3.20508 9.33518C3.10203 9.25639 3.08196 9.17051 3.14298 9.09145C3.20401 9.0124 3.30036 9.00951 3.40662 9.09145C4.01847 9.56106 4.70767 9.85311 5.4793 9.94241C6.7469 10.0879 7.863 9.74123 8.81048 8.9034C9.54224 8.25704 9.98252 7.44416 10.1276 6.48866C10.2785 5.4943 10.0786 4.56428 9.53876 3.70702C9.51949 3.67629 9.49834 3.64661 9.47961 3.61562C9.42608 3.52422 9.4424 3.43177 9.52297 3.38292C9.60353 3.33406 9.69399 3.35403 9.74645 3.44411C9.88028 3.67156 10.0179 3.89717 10.1273 4.13512C10.3754 4.67223 10.4951 5.27315 10.4967 5.86568Z" fill="#AB7711"/>
<path d="M5.83945 4.37413C5.83945 4.05266 5.83945 3.73118 5.83945 3.40971C5.83945 3.27576 5.89593 3.20327 5.99844 3.20222C6.10095 3.20117 6.15903 3.27471 6.15903 3.40656C6.15903 4.04951 6.15903 4.69245 6.15903 5.3354C6.15903 5.3987 6.16866 5.43783 6.23584 5.47303C6.29198 5.50248 6.34138 5.5429 6.38098 5.59181C6.42059 5.64072 6.44956 5.69707 6.46611 5.75739C6.48266 5.81771 6.48644 5.88072 6.47722 5.94252C6.468 6.00433 6.44597 6.06363 6.41249 6.11676C6.37341 6.17954 6.38332 6.21814 6.41624 6.27435C6.68532 6.7275 6.95297 7.18143 7.21919 7.63615C7.23884 7.66655 7.25525 7.69885 7.26817 7.73254C7.28188 7.76488 7.28281 7.80107 7.27079 7.83405C7.25876 7.86702 7.23464 7.89442 7.20313 7.91087C7.17237 7.93187 7.13471 7.94081 7.09757 7.93595C7.06043 7.93109 7.02648 7.91278 7.00239 7.88461C6.97878 7.85706 6.95865 7.82681 6.94244 7.79452C6.67425 7.34138 6.40705 6.88718 6.14083 6.43193C6.10844 6.37625 6.07739 6.34763 6.00352 6.34946C5.8968 6.35084 5.79268 6.31708 5.70779 6.25359C5.62291 6.19009 5.56215 6.10052 5.53522 5.99917C5.50829 5.89782 5.51674 5.79054 5.55923 5.69446C5.60171 5.59837 5.67577 5.51903 5.7696 5.46909C5.82607 5.43915 5.84133 5.40684 5.84079 5.34775C5.83945 5.02365 5.83945 4.6985 5.83945 4.37413ZM6.00004 5.7228C5.9682 5.72244 5.93697 5.73137 5.91032 5.74846C5.88366 5.76555 5.86279 5.79003 5.85035 5.8188C5.8379 5.84756 5.83446 5.8793 5.84044 5.90999C5.84642 5.94067 5.86157 5.96893 5.88395 5.99115C5.90633 6.01337 5.93494 6.02856 5.96614 6.0348C5.99734 6.04103 6.02973 6.03802 6.05918 6.02614C6.08864 6.01427 6.11383 5.99408 6.13156 5.96812C6.14929 5.94217 6.15876 5.91163 6.15876 5.88039C6.15876 5.83891 6.1421 5.7991 6.11239 5.7696C6.08267 5.7401 6.04231 5.72328 6.00004 5.7228Z" fill="#AB7711"/>
<path d="M6.16069 2.49229C6.16069 2.56793 6.16283 2.64331 6.16069 2.71895C6.15695 2.81928 6.09084 2.88547 6.0001 2.88494C5.90937 2.88442 5.84299 2.81797 5.84112 2.71738C5.83844 2.56644 5.83844 2.41551 5.84112 2.26458C5.84299 2.16399 5.9099 2.09806 6.00171 2.09859C6.09351 2.09912 6.15748 2.16478 6.1623 2.26589C6.16257 2.3418 6.16069 2.41744 6.16069 2.49229Z" fill="#AB7711"/>
<path d="M2.54095 6.03797C2.46386 6.03797 2.38705 6.04059 2.31023 6.03797C2.21388 6.03377 2.14964 5.97047 2.1467 5.88485C2.14375 5.79922 2.21147 5.72726 2.31291 5.7249C2.47011 5.72175 2.62731 5.72175 2.78451 5.7249C2.80551 5.72416 2.82646 5.72755 2.84611 5.73486C2.86576 5.74217 2.88373 5.75325 2.89896 5.76746C2.9142 5.78168 2.92638 5.79873 2.93481 5.81762C2.94324 5.83651 2.94774 5.85687 2.94804 5.87749C2.95019 5.96653 2.88274 6.03508 2.78157 6.03797C2.70154 6.04007 2.62124 6.03797 2.54095 6.03797Z" fill="#AB7711"/>
<path d="M9.4619 6.03797C9.3816 6.03797 9.30131 6.04034 9.22101 6.03797C9.11877 6.0343 9.05159 5.96942 9.05213 5.88039C9.05266 5.79135 9.11957 5.72648 9.22289 5.72464C9.37687 5.72201 9.53069 5.72201 9.68432 5.72464C9.78683 5.72648 9.85401 5.79267 9.85347 5.88223C9.85294 5.97179 9.78522 6.03482 9.68244 6.03824C9.60911 6.03981 9.5355 6.03797 9.4619 6.03797Z" fill="#AB7711"/>
<path d="M5.83945 9.26847C5.83945 9.19309 5.83731 9.11745 5.83945 9.04207C5.8432 8.94174 5.90904 8.87582 6.00004 8.87661C6.09104 8.8774 6.15689 8.94332 6.15876 9.04444C6.16144 9.19519 6.16144 9.34648 6.15876 9.49723C6.15689 9.59756 6.0889 9.66375 5.99817 9.66296C5.90744 9.66217 5.84454 9.59572 5.83918 9.49513C5.83918 9.48857 5.83918 9.482 5.83918 9.47543C5.83945 9.40505 5.83945 9.33623 5.83945 9.26847Z" fill="#AB7711"/>
<path d="M4.18571 2.58632C4.20873 2.60392 4.266 2.62992 4.29491 2.67378C4.37868 2.79985 4.45363 2.93196 4.52776 3.0638C4.57782 3.15284 4.55453 3.24109 4.47423 3.28574C4.39394 3.33039 4.30454 3.30543 4.25128 3.21903C4.17099 3.0877 4.09069 2.95481 4.01655 2.81902C3.9558 2.70819 4.02887 2.58868 4.18571 2.58632Z" fill="#AB7711"/>
<path d="M7.63977 3.30491C7.49202 3.30491 7.40878 3.19486 7.46044 3.09479C7.53859 2.94299 7.62719 2.79591 7.71926 2.65172C7.7661 2.57791 7.84452 2.5682 7.92321 2.60602C7.94155 2.61445 7.95793 2.62651 7.97131 2.64143C7.9847 2.65635 7.99481 2.67382 8.00102 2.69275C8.00722 2.71167 8.00938 2.73165 8.00737 2.75143C8.00536 2.77121 7.99921 2.79038 7.98932 2.80773C7.91116 2.95218 7.82873 3.09506 7.73906 3.23294C7.7131 3.27155 7.65957 3.29178 7.63977 3.30491Z" fill="#AB7711"/>
<path d="M8.76701 4.47944C8.72231 4.44057 8.65299 4.40853 8.64041 4.36151C8.62622 4.30898 8.64442 4.21601 8.6835 4.18948C8.83274 4.09044 8.98839 4.00104 9.14948 3.92185C9.2196 3.88613 9.28893 3.91896 9.33121 3.98383C9.3735 4.0487 9.37672 4.13012 9.31275 4.17136C9.15216 4.27642 8.98033 4.36388 8.81278 4.45816C8.80337 4.4612 8.79349 4.46254 8.7836 4.4621L8.76701 4.47944Z" fill="#AB7711"/>
<path d="M9.35565 7.65979C9.35805 7.80214 9.24671 7.88592 9.14393 7.8355C8.98617 7.75709 8.83269 7.67065 8.68411 7.57653C8.60997 7.52978 8.60221 7.44889 8.64771 7.37561C8.69321 7.30233 8.76655 7.27397 8.84631 7.31546C8.99646 7.39426 9.14447 7.47725 9.2882 7.56629C9.32513 7.5894 9.34307 7.64166 9.35565 7.65979Z" fill="#AB7711"/>
<path d="M3.37711 4.27379C3.37711 4.41142 3.27005 4.4973 3.17209 4.45029C3.01137 4.37054 2.85487 4.28288 2.70317 4.18764C2.63438 4.14536 2.62421 4.04976 2.66891 3.98515C2.7136 3.92054 2.7848 3.88639 2.86001 3.925C3.01364 4.0038 3.16388 4.0888 3.31073 4.18003C3.34633 4.20235 3.36373 4.25567 3.37711 4.27379Z" fill="#AB7711"/>
<path d="M2.78563 7.86753C2.74147 7.8284 2.68339 7.79714 2.65636 7.74882C2.63895 7.71969 2.63388 7.68502 2.64224 7.65226C2.6506 7.61951 2.67172 7.59128 2.70105 7.57363C2.85415 7.48039 3.00992 7.38978 3.16971 7.30968C3.2401 7.27396 3.30942 7.30758 3.35118 7.37271C3.39293 7.43785 3.39641 7.51874 3.33191 7.55998C3.17132 7.66346 2.99949 7.75223 2.83167 7.84626C2.82207 7.84921 2.81199 7.85037 2.80196 7.84967L2.78563 7.86753Z" fill="#AB7711"/>
<path d="M4.57751 8.59872C4.46135 8.79991 4.38534 9.00188 4.22636 9.15027C4.19772 9.17654 4.09494 9.16472 4.05667 9.13399C4.01839 9.10326 3.98734 9.01291 4.00662 8.97378C4.08605 8.81135 4.17822 8.65522 4.28229 8.5068C4.30745 8.47108 4.40086 8.45427 4.45065 8.4695C4.50043 8.48474 4.53255 8.55014 4.57751 8.59872Z" fill="#AB7711"/>
<path d="M8.02482 9.03787C7.9844 9.08042 7.95121 9.13689 7.90143 9.1621C7.87137 9.1785 7.83597 9.18274 7.80278 9.17391C7.76958 9.16508 7.74121 9.14388 7.72371 9.11482C7.63084 8.96722 7.54171 8.81725 7.45874 8.66387C7.42126 8.59453 7.45097 8.52729 7.51494 8.48317C7.57891 8.43904 7.66429 8.43248 7.70631 8.49394C7.81337 8.65389 7.90651 8.82513 8.00421 8.99296C8.00876 9.00058 8.00608 9.01239 8.00688 9.02211L8.02482 9.03787Z" fill="#AB7711"/>
<path d="M8.88104 2.53116C8.93751 2.56241 8.98007 2.5766 9.00978 2.60417C9.11416 2.7003 9.21667 2.79879 9.31517 2.90096C9.39145 2.97975 9.39011 3.07168 9.32079 3.13576C9.25147 3.19985 9.16234 3.19354 9.08178 3.11606C8.98167 3.01994 8.88211 2.92355 8.78388 2.82584C8.73303 2.77515 8.70573 2.71054 8.74748 2.64856C8.7788 2.60207 8.8342 2.57108 8.88104 2.53116Z" fill="#AB7711"/>
<path d="M6.00008 5.72279C6.03192 5.7228 6.06304 5.73209 6.08949 5.74948C6.11594 5.76688 6.13652 5.7916 6.14862 5.82051C6.16071 5.84941 6.16378 5.88119 6.15743 5.91181C6.15108 5.94242 6.1356 5.9705 6.11295 5.99246C6.09031 6.01442 6.06152 6.02929 6.03024 6.03516C5.99897 6.04103 5.96662 6.03764 5.93731 6.02544C5.908 6.01323 5.88306 5.99274 5.86564 5.96659C5.84822 5.94043 5.83912 5.90978 5.83949 5.87854C5.83998 5.83707 5.85712 5.79745 5.88718 5.7683C5.91724 5.73914 5.95781 5.72279 6.00008 5.72279Z" fill="white"/>
</g>
<defs>
<clipPath id="clip0_2_674">
<rect width="10.2778" height="10.0855" fill="white" transform="translate(0.861206 0.837646)"/>
</clipPath>
</defs>
</svg>
