<svg width="19" height="21" viewBox="0 0 19 21" fill="none" xmlns="http://www.w3.org/2000/svg">
<path d="M8.5148 0.767257C8.80175 0.495973 9.18165 0.344818 9.57653 0.344818C9.97141 0.344818 10.3513 0.495973 10.6383 0.767257L18.1244 7.84544C18.5881 8.2828 18.8493 8.89171 18.8493 9.52998V18.1366C18.8493 18.7514 18.605 19.3411 18.1703 19.7758C17.7355 20.2106 17.1459 20.4548 16.5311 20.4548H13.4402C12.8253 20.4548 12.2357 20.2106 11.801 19.7758C11.3662 19.3411 11.122 18.7514 11.122 18.1366V14.273C11.122 14.068 11.0406 13.8715 10.8957 13.7266C10.7507 13.5817 10.5542 13.5003 10.3493 13.5003H8.8038C8.59886 13.5003 8.40232 13.5817 8.2574 13.7266C8.11249 13.8715 8.03107 14.068 8.03107 14.273V18.1366C8.03107 18.7514 7.78684 19.3411 7.3521 19.7758C6.91735 20.2106 6.32771 20.4548 5.71289 20.4548H2.62198C2.00716 20.4548 1.41753 20.2106 0.982782 19.7758C0.548039 19.3411 0.303802 18.7514 0.303802 18.1366V9.52844C0.303802 8.89171 0.56653 8.2828 1.03017 7.84389L8.5148 0.767257ZM9.57653 1.8908L2.09035 8.96898C2.01435 9.04103 1.95379 9.12778 1.91234 9.22395C1.8709 9.32012 1.84944 9.42371 1.84926 9.52844V18.1366C1.84926 18.3416 1.93067 18.5381 2.07558 18.683C2.2205 18.8279 2.41704 18.9093 2.62198 18.9093H5.71289C5.91783 18.9093 6.11438 18.8279 6.25929 18.683C6.40421 18.5381 6.48562 18.3416 6.48562 18.1366V14.273C6.48562 13.6582 6.72986 13.0685 7.1646 12.6338C7.59934 12.199 8.18898 11.9548 8.8038 11.9548H10.3493C10.9641 11.9548 11.5537 12.199 11.9885 12.6338C12.4232 13.0685 12.6674 13.6582 12.6674 14.273V18.1366C12.6674 18.3416 12.7488 18.5381 12.8938 18.683C13.0387 18.8279 13.2352 18.9093 13.4402 18.9093H16.5311C16.736 18.9093 16.9326 18.8279 17.0775 18.683C17.2224 18.5381 17.3038 18.3416 17.3038 18.1366V9.52844C17.3038 9.42345 17.2825 9.31957 17.241 9.22311C17.1996 9.12666 17.1389 9.03967 17.0627 8.96744L9.57653 1.8908Z" fill="#AB7711"/>
</svg>
