<svg width="10" height="10" viewBox="0 0 10 10" fill="none" xmlns="http://www.w3.org/2000/svg">
<g clip-path="url(#clip0_2_710)">
<path d="M7.01147 10C6.83719 9.97429 6.66576 9.95429 6.49148 9.92572C5.99944 9.83517 5.51989 9.68651 5.06291 9.48286C5.01505 9.46399 4.97142 9.43581 4.93454 9.39995C4.89766 9.36409 4.86826 9.32126 4.84806 9.27395C4.82786 9.22664 4.81726 9.17579 4.81686 9.12435C4.81647 9.07291 4.82629 9.02191 4.84576 8.97429C4.86454 8.92645 4.89276 8.88287 4.92874 8.84617C4.96472 8.80947 5.00772 8.78038 5.05518 8.76065C5.10264 8.74092 5.15359 8.73095 5.20498 8.73133C5.25638 8.73171 5.30717 8.74243 5.35433 8.76286C5.75538 8.93344 6.17278 9.06268 6.60005 9.14858C7.22118 9.28557 7.86938 9.22872 8.45719 8.98572C8.66973 8.8908 8.86333 8.75818 9.02862 8.59429C9.14885 8.47269 9.21907 8.31041 9.22542 8.13954C9.23177 7.96866 9.17378 7.80162 9.06291 7.67143C8.80547 7.37565 8.4967 7.12883 8.15148 6.94286C7.68862 6.70001 7.36862 6.76 6.98005 7.13715L6.33719 7.77715C6.27266 7.86366 6.17731 7.922 6.07092 7.94009C5.96452 7.95818 5.85525 7.93461 5.76576 7.87429C5.17247 7.56648 4.62207 7.18226 4.12862 6.73143C3.43235 6.12157 2.8314 5.41082 2.34576 4.62286C2.26862 4.49429 2.19719 4.36286 2.12862 4.22858C2.07353 4.14466 2.05151 4.04329 2.06682 3.94408C2.08212 3.84487 2.13366 3.75485 2.21148 3.69143C2.46862 3.42858 2.72576 3.17143 2.97433 2.90857C3.09854 2.78594 3.1794 2.62617 3.20466 2.45346C3.22993 2.28075 3.19821 2.10451 3.11433 1.95143C2.92479 1.56059 2.65628 1.21328 2.32576 0.931431C2.18842 0.82109 2.01387 0.767846 1.83832 0.782741C1.66277 0.797636 1.49969 0.879527 1.3829 1.01143C0.966057 1.49628 0.754886 2.12467 0.794333 2.76286C0.813532 3.43141 0.970113 4.08886 1.25433 4.69429C1.79918 5.88931 2.62683 6.93368 3.66576 7.73715L3.79433 7.84286C3.87331 7.90767 3.92358 8.00097 3.93428 8.10257C3.94497 8.20416 3.91522 8.30589 3.85148 8.38572C3.82072 8.42601 3.78221 8.45974 3.73822 8.48493C3.69423 8.51011 3.64564 8.52624 3.59532 8.53237C3.545 8.53849 3.49397 8.53449 3.44522 8.52059C3.39647 8.50669 3.351 8.48317 3.31148 8.45143C3.15148 8.33429 2.99719 8.20858 2.84862 8.07715C1.85514 7.22848 1.06271 6.16962 0.528621 4.97715C0.257245 4.3781 0.088235 3.7378 0.0286211 3.08286C0.0286211 3.05143 0.0286175 3.02001 0.0114746 2.98858V2.46C0.0114746 2.42572 0.025764 2.39143 0.0286211 2.35715C0.0622946 1.85163 0.217126 1.36165 0.480046 0.928576C0.646628 0.609215 0.905475 0.347381 1.2229 0.177146C1.39423 0.109408 1.56985 0.0530954 1.74862 0.00857544H2.06291C2.18945 0.033378 2.31369 0.0687384 2.43433 0.114288C2.58532 0.173986 2.72606 0.25689 2.85148 0.360003C3.27708 0.725689 3.61743 1.18015 3.84862 1.69143C3.97914 1.97513 4.02169 2.29142 3.97076 2.59952C3.91983 2.90762 3.77778 3.1934 3.56291 3.42C3.36291 3.65143 3.14005 3.86286 2.9229 4.08858C2.98005 4.18572 3.03433 4.28286 3.09719 4.37429C3.80192 5.45847 4.74125 6.37045 5.84576 7.04286C5.90576 7.07715 5.93719 7.07715 5.98576 7.04286C6.18576 6.84286 6.3829 6.64001 6.59719 6.45143C6.88065 6.19158 7.24983 6.04513 7.63433 6.04C7.98302 6.04213 8.32427 6.14104 8.62005 6.32572C8.97105 6.53947 9.29361 6.79675 9.58005 7.09144C9.79558 7.31106 9.93653 7.59295 9.98291 7.89715C9.98693 7.91946 9.99266 7.94143 10 7.96286V8.27715C9.99301 8.29772 9.98729 8.31871 9.98291 8.34001C9.9483 8.61324 9.83289 8.86992 9.65148 9.07715C9.27612 9.48807 8.7833 9.77339 8.24005 9.89429C8.00862 9.95144 7.77148 9.97429 7.54005 10.0143L7.01147 10Z" fill="#AB7711"/>
<path d="M10 0.468571C9.93855 0.569446 9.86879 0.665016 9.79143 0.754286C9.05715 1.49429 8.31715 2.23143 7.58 2.97143L7.49143 3.06286H7.61143C8.06286 3.06286 8.51715 3.06286 8.96858 3.06286C9.03865 3.06004 9.10817 3.07624 9.16978 3.10973C9.23139 3.14323 9.28279 3.19277 9.31853 3.25311C9.35426 3.31345 9.373 3.38233 9.37276 3.45246C9.37251 3.52258 9.3533 3.59134 9.31715 3.65143C9.28552 3.7092 9.23875 3.75728 9.18188 3.7905C9.125 3.82372 9.06015 3.84083 8.99429 3.84C8.42286 3.84 7.82857 3.84 7.24857 3.84C6.95983 3.8271 6.6867 3.70526 6.48418 3.49904C6.28166 3.29281 6.16481 3.01751 6.15715 2.72857C6.15715 2.15714 6.15715 1.58572 6.15715 1.01429C6.15637 0.962801 6.16598 0.911685 6.18541 0.864001C6.20484 0.816316 6.23369 0.773041 6.27023 0.736764C6.30678 0.700487 6.35026 0.671957 6.39809 0.652876C6.44592 0.633795 6.4971 0.624556 6.54858 0.625715C6.6002 0.625692 6.65131 0.636033 6.69887 0.656128C6.74643 0.676223 6.78947 0.705661 6.82544 0.742698C6.86141 0.779734 6.88958 0.823615 6.90828 0.871739C6.92698 0.919863 6.93582 0.971251 6.93429 1.02286C6.93429 1.47429 6.93429 1.92572 6.93429 2.37714V2.50857L7.02572 2.42C7.76572 1.68286 8.50286 0.942856 9.24286 0.20857C9.33213 0.131219 9.4277 0.0614539 9.52858 0H9.68572C9.75906 0.0226361 9.82576 0.0628356 9.88004 0.117109C9.93431 0.171382 9.97451 0.238087 9.99715 0.311428L10 0.468571Z" fill="#AB7711"/>
</g>
<defs>
<clipPath id="clip0_2_710">
<rect width="10" height="10" fill="white"/>
</clipPath>
</defs>
</svg>
