<svg width="20" height="21" viewBox="0 0 20 21" fill="none" xmlns="http://www.w3.org/2000/svg">
<path d="M7.73029 21C7.60735 20.929 7.50857 20.8249 7.44603 20.7006C7.38348 20.5763 7.3599 20.4371 7.37817 20.3001C7.38906 18.5992 7.37817 16.8984 7.37817 15.1975C7.37423 15.047 7.32711 14.9004 7.24204 14.7741C5.06277 11.6383 2.88108 8.50203 0.696978 5.36515C0.368454 4.89444 0.353934 4.47973 0.649786 4.10176C0.75297 3.97241 0.887552 3.86948 1.04169 3.80205C1.19582 3.73461 1.36479 3.70474 1.53371 3.71505H3.78256C3.2689 2.35367 3.47218 1.44025 4.41419 0.78406C4.80288 0.529939 5.26413 0.399088 5.73363 0.409753C6.20313 0.420418 6.65747 0.572068 7.03331 0.843556C7.73029 1.36851 8.25665 2.46741 7.57782 3.69405H10.4438C10.8395 2.29418 11.7815 1.41925 13.3333 1.442C14.8416 1.45775 15.7492 2.31692 16.143 3.7168C17.0741 3.7168 17.9998 3.7168 18.9255 3.7168C19.0587 3.7085 19.1923 3.72567 19.3186 3.76733C19.4449 3.80898 19.5614 3.87429 19.6614 3.9595C19.7614 4.04471 19.843 4.14814 19.9014 4.26385C19.9598 4.37955 19.994 4.50525 20.0018 4.63371C20.0085 4.90412 19.916 5.16812 19.7405 5.37915C17.6677 8.35388 15.6058 11.3286 13.5148 14.3033C13.1822 14.7357 13.0143 15.2653 13.0393 15.803C13.0847 16.6779 13.0393 17.5528 13.0556 18.4382C13.0672 18.572 13.0318 18.7056 12.9551 18.8177C12.8784 18.9297 12.7649 19.0136 12.6327 19.0559C11.119 19.6824 9.61793 20.3228 8.11508 20.951C8.08681 20.9657 8.05953 20.982 8.0334 21H7.73029ZM1.45022 4.70196C1.73519 5.10967 1.99474 5.47539 2.24703 5.85511C2.28548 5.92459 2.34449 5.98148 2.41656 6.01856C2.48863 6.05563 2.57051 6.07122 2.65178 6.06334C6.12215 6.05634 9.59192 6.05634 13.0611 6.06334C13.1623 6.05918 13.2638 6.06387 13.3642 6.07733C13.4813 6.09584 13.5878 6.15352 13.6652 6.24024C13.7425 6.32696 13.7857 6.43718 13.7871 6.55154C13.7845 6.66679 13.7398 6.77744 13.6607 6.86391C13.5816 6.95038 13.4734 7.00709 13.3551 7.024C13.2552 7.03601 13.1544 7.04011 13.0538 7.03625H3.09829C3.12733 7.09924 3.13459 7.12199 3.14729 7.14299C4.78083 9.49594 6.42224 11.8477 8.07151 14.1984C8.10594 14.2395 8.14892 14.2732 8.19769 14.2973C8.24646 14.3214 8.29994 14.3354 8.35466 14.3383C8.95181 14.3523 9.55078 14.3383 10.1479 14.3471C10.5 14.3471 10.7051 14.5221 10.7179 14.8073C10.7306 15.0925 10.5273 15.3008 10.1733 15.3183C9.9392 15.3305 9.70324 15.3183 9.46729 15.3183H8.41819V19.7349C8.45079 19.7322 8.48303 19.7264 8.51439 19.7174C9.63972 19.2449 10.7632 18.7689 11.8922 18.3017C12.0356 18.2422 12.0356 18.1495 12.0356 18.0323C12.0356 17.0646 12.0356 16.0952 12.0356 15.1275C12.0276 14.8438 12.1148 14.5652 12.2842 14.3331C14.4623 11.2114 16.6404 8.0879 18.8184 4.96269C18.8729 4.88569 18.9255 4.80695 18.9999 4.70196H1.45022ZM6.88266 2.55315C6.88702 2.24482 6.76427 1.94743 6.54136 1.7263C6.31845 1.50516 6.01361 1.37837 5.6938 1.37376C5.53326 1.3726 5.37406 1.40206 5.22537 1.46044C5.07667 1.51883 4.94142 1.60497 4.82739 1.71393C4.71336 1.82289 4.6228 1.95251 4.56092 2.09534C4.49904 2.23816 4.46707 2.39137 4.46683 2.54615C4.46919 2.85439 4.597 3.14941 4.82275 3.3677C5.04849 3.58599 5.35412 3.7101 5.67384 3.7133C5.99335 3.71284 6.29972 3.59063 6.52616 3.37331C6.7526 3.15599 6.88074 2.86118 6.88266 2.55315ZM15.0467 3.6993C14.9288 2.99936 14.1174 2.39392 13.2861 2.39217C12.4549 2.39042 11.6526 2.98361 11.5219 3.6993H15.0467Z" fill="#9B9B9B"/>
</svg>
