<svg width="20" height="25" viewBox="0 0 20 25" fill="none" xmlns="http://www.w3.org/2000/svg">
<g clip-path="url(#clip0_1_211)">
<path d="M7.73029 25C7.60735 24.929 7.50857 24.8249 7.44603 24.7006C7.38348 24.5763 7.3599 24.4371 7.37817 24.3001C7.38906 22.5992 7.37817 20.8984 7.37817 19.1975C7.37423 19.047 7.32711 18.9004 7.24204 18.7741C5.06277 15.6383 2.88108 12.502 0.696978 9.36515C0.368454 8.89444 0.353934 8.47973 0.649786 8.10176C0.75297 7.97241 0.887552 7.86948 1.04169 7.80205C1.19582 7.73461 1.36479 7.70474 1.53371 7.71505H3.78256C3.2689 6.35367 3.47218 5.44025 4.41419 4.78406C4.80288 4.52994 5.26413 4.39909 5.73363 4.40975C6.20313 4.42042 6.65747 4.57207 7.03331 4.84356C7.73029 5.36851 8.25665 6.46741 7.57782 7.69405H10.4438C10.8395 6.29418 11.7815 5.41925 13.3333 5.442C14.8416 5.45775 15.7492 6.31692 16.143 7.7168C17.0741 7.7168 17.9998 7.7168 18.9255 7.7168C19.0587 7.7085 19.1923 7.72567 19.3186 7.76733C19.4449 7.80898 19.5614 7.87429 19.6614 7.9595C19.7614 8.04471 19.843 8.14814 19.9014 8.26385C19.9598 8.37955 19.994 8.50525 20.0018 8.63371C20.0085 8.90412 19.916 9.16812 19.7405 9.37915C17.6677 12.3539 15.6058 15.3286 13.5148 18.3033C13.1822 18.7357 13.0143 19.2653 13.0393 19.803C13.0847 20.6779 13.0393 21.5528 13.0556 22.4382C13.0672 22.572 13.0318 22.7056 12.9551 22.8177C12.8784 22.9297 12.7649 23.0136 12.6327 23.0559C11.119 23.6824 9.61793 24.3228 8.11508 24.951C8.08681 24.9657 8.05953 24.982 8.0334 25H7.73029ZM1.45022 8.70196C1.73519 9.10967 1.99474 9.47539 2.24703 9.85511C2.28548 9.92459 2.34449 9.98148 2.41656 10.0186C2.48863 10.0556 2.57051 10.0712 2.65178 10.0633C6.12215 10.0563 9.59192 10.0563 13.0611 10.0633C13.1623 10.0592 13.2638 10.0639 13.3642 10.0773C13.4813 10.0958 13.5878 10.1535 13.6652 10.2402C13.7425 10.327 13.7857 10.4372 13.7871 10.5515C13.7845 10.6668 13.7398 10.7774 13.6607 10.8639C13.5816 10.9504 13.4734 11.0071 13.3551 11.024C13.2552 11.036 13.1544 11.0401 13.0538 11.0362H3.09829C3.12733 11.0992 3.13459 11.122 3.14729 11.143C4.78083 13.4959 6.42224 15.8477 8.07151 18.1984C8.10594 18.2395 8.14892 18.2732 8.19769 18.2973C8.24646 18.3214 8.29994 18.3354 8.35466 18.3383C8.95181 18.3523 9.55078 18.3383 10.1479 18.3471C10.5 18.3471 10.7051 18.5221 10.7179 18.8073C10.7306 19.0925 10.5273 19.3008 10.1733 19.3183C9.9392 19.3305 9.70324 19.3183 9.46729 19.3183H8.41819V23.7349C8.45079 23.7322 8.48303 23.7264 8.51439 23.7174C9.63972 23.2449 10.7632 22.7689 11.8922 22.3017C12.0356 22.2422 12.0356 22.1495 12.0356 22.0323C12.0356 21.0646 12.0356 20.0952 12.0356 19.1275C12.0276 18.8438 12.1148 18.5652 12.2842 18.3331C14.4623 15.2114 16.6404 12.0879 18.8184 8.96269C18.8729 8.88569 18.9255 8.80695 18.9999 8.70196H1.45022ZM6.88266 6.55315C6.88702 6.24482 6.76427 5.94743 6.54136 5.7263C6.31845 5.50516 6.01361 5.37837 5.6938 5.37376C5.53326 5.3726 5.37406 5.40206 5.22537 5.46044C5.07667 5.51883 4.94142 5.60497 4.82739 5.71393C4.71336 5.82289 4.6228 5.95251 4.56092 6.09534C4.49904 6.23816 4.46707 6.39137 4.46683 6.54615C4.46919 6.85439 4.597 7.14941 4.82275 7.3677C5.04849 7.58599 5.35412 7.7101 5.67384 7.7133C5.99335 7.71284 6.29972 7.59063 6.52616 7.37331C6.7526 7.15599 6.88074 6.86118 6.88266 6.55315ZM15.0467 7.6993C14.9288 6.99936 14.1174 6.39392 13.2861 6.39217C12.4549 6.39042 11.6526 6.98361 11.5219 7.6993H15.0467Z" fill="#9B9B9B"/>
<path d="M12.179 0C12.6297 0.0689403 13.0525 0.254618 13.4023 0.537202C14.0684 1.1304 14.3098 1.86183 14.0793 2.70176C13.9861 3.10664 13.7643 3.47348 13.4449 3.75131C13.1255 4.02915 12.7243 4.20419 12.2969 4.25212C11.9822 4.30738 11.6587 4.29512 11.3495 4.21622C11.0402 4.13731 10.7528 3.9937 10.5076 3.79558C10.2624 3.59746 10.0655 3.34971 9.93087 3.06993C9.79625 2.79015 9.72721 2.48522 9.72865 2.1768C9.7168 1.6708 9.89336 1.17745 10.2263 0.78614C10.5593 0.394831 11.0266 0.131458 11.5437 0.0437461C11.5909 0.033247 11.6363 0.0139987 11.6835 0H12.179ZM13.1482 2.15756C13.1516 1.8495 13.0285 1.55264 12.8058 1.33171C12.5831 1.11077 12.2788 0.983687 11.9593 0.978161C11.6352 0.977225 11.3238 1.1 11.0932 1.31967C10.8627 1.53934 10.7316 1.83805 10.7287 2.15056C10.7316 2.45991 10.8598 2.75594 11.086 2.97535C11.3122 3.19476 11.6185 3.32014 11.9394 3.3247C12.2601 3.32424 12.5676 3.20107 12.7943 2.98223C13.0209 2.7634 13.1482 2.4668 13.1482 2.15756Z" fill="#9B9B9B"/>
<path d="M0.653285 0C0.776354 0.0611489 0.877085 0.157115 0.94197 0.275028C1.00685 0.392941 1.03279 0.527162 1.01629 0.65969C1.00359 1.60985 1.01629 2.56177 1.01629 3.51193C1.0194 3.59321 1.01515 3.6746 1.00359 3.75516C0.98424 3.86404 0.926212 3.96304 0.839451 4.03519C0.752689 4.10734 0.642597 4.14815 0.528046 4.15063C0.417903 4.15466 0.309666 4.12209 0.221448 4.05838C0.133231 3.99468 0.0703857 3.90369 0.0434293 3.80066C0.0186415 3.7063 0.00644186 3.60927 0.00712751 3.51193C0.00712751 2.55302 0.00712751 1.58711 0.00712751 0.635192C-0.00932269 0.50223 0.0204131 0.367763 0.0916802 0.252829C0.162947 0.137896 0.271726 0.0489814 0.400994 0H0.653285Z" fill="#9B9B9B"/>
<path d="M17.8474 4.24862C17.8474 4.67908 17.8474 5.10954 17.8474 5.54C17.8474 5.88997 17.6659 6.0982 17.3591 6.1052C17.0524 6.1122 16.8418 5.89172 16.84 5.53825C16.84 4.67033 16.84 3.80124 16.84 2.93099C16.84 2.58102 17.0542 2.35704 17.3591 2.36579C17.664 2.37454 17.8437 2.58802 17.8474 2.93274C17.8492 3.37195 17.8474 3.80941 17.8474 4.24862Z" fill="#9B9B9B"/>
<path d="M7.89727 2.11206C7.89727 2.42878 7.89727 2.74726 7.89727 3.06398C7.90271 3.1311 7.89394 3.19858 7.87151 3.26233C7.84907 3.32609 7.81343 3.38478 7.76676 3.43486C7.72008 3.48493 7.66334 3.52534 7.59997 3.55363C7.5366 3.58192 7.46793 3.5975 7.39813 3.59943C7.33013 3.59831 7.26304 3.58413 7.20078 3.55773C7.13852 3.53133 7.08235 3.49323 7.03554 3.44565C6.98873 3.39808 6.95223 3.34199 6.92816 3.28067C6.90409 3.21934 6.89294 3.154 6.89536 3.08847C6.88084 2.43928 6.88084 1.78659 6.89536 1.1374C6.8908 1.0697 6.9013 1.00184 6.92617 0.938375C6.95103 0.874907 6.98968 0.817298 7.03953 0.769409C7.08937 0.721519 7.14926 0.684457 7.21518 0.660706C7.2811 0.636954 7.35152 0.627063 7.42173 0.631696C7.70487 0.643944 7.88819 0.841677 7.89727 1.15665C7.90634 1.47162 7.89727 1.79534 7.89727 2.11206Z" fill="#9B9B9B"/>
<path d="M1.00917 5.50324C1.00824 5.62968 0.956099 5.75077 0.863866 5.84067C0.771633 5.93057 0.646611 5.98217 0.515474 5.98445C0.383592 5.98094 0.258086 5.92898 0.164627 5.83921C0.0711687 5.74943 0.0168228 5.62862 0.0127068 5.50149C0.0164235 5.37456 0.0707517 5.2539 0.164393 5.1646C0.258035 5.0753 0.38378 5.02423 0.515474 5.02203C0.580699 5.02226 0.645234 5.0349 0.70538 5.05923C0.765526 5.08356 0.820098 5.1191 0.865965 5.16381C0.911833 5.20851 0.948093 5.26151 0.972667 5.31976C0.997241 5.37801 1.00965 5.44036 1.00917 5.50324Z" fill="#9B9B9B"/>
<path d="M17.8437 1.24064C17.8442 1.3036 17.8318 1.36604 17.8073 1.42438C17.7827 1.48273 17.7465 1.53585 17.7006 1.58069C17.6548 1.62554 17.6002 1.66124 17.5401 1.68576C17.4799 1.71028 17.4153 1.72314 17.35 1.72359C17.218 1.72366 17.0912 1.67421 16.9963 1.5857C16.9015 1.4972 16.8461 1.37658 16.8418 1.24939C16.8437 1.12262 16.8966 1.00153 16.9894 0.911724C17.0822 0.821917 17.2077 0.770438 17.3391 0.768179C17.4044 0.767253 17.4693 0.77874 17.53 0.801983C17.5907 0.825227 17.6461 0.859771 17.6929 0.903644C17.7398 0.947517 17.7772 0.99986 17.8031 1.05768C17.829 1.1155 17.8428 1.17767 17.8437 1.24064Z" fill="#9B9B9B"/>
<path d="M16.0287 10.5428C16.0288 10.6698 15.9777 10.7918 15.8863 10.8832C15.7949 10.9746 15.6702 11.0282 15.5386 11.0328C15.4072 11.0289 15.2822 10.977 15.1888 10.8877C15.0955 10.7984 15.0408 10.6782 15.0358 10.5516C15.0372 10.4246 15.0892 10.303 15.1812 10.212C15.2731 10.1211 15.3979 10.0679 15.5295 10.0634C15.661 10.0652 15.7866 10.1162 15.8798 10.2057C15.9729 10.2951 16.0263 10.4161 16.0287 10.5428Z" fill="#9B9B9B"/>
</g>
<defs>
<clipPath id="clip0_1_211">
<rect width="20" height="25" fill="white"/>
</clipPath>
</defs>
</svg>
