<svg width="15" height="15" viewBox="0 0 15 15" fill="none" xmlns="http://www.w3.org/2000/svg">
<g clip-path="url(#clip0_2_589)">
<path d="M15 2.28466C14.9584 2.40606 14.8759 2.50927 14.7667 2.57669C14.6575 2.6441 14.5283 2.67155 14.4011 2.65434C13.6063 2.6414 12.8096 2.65434 12.0148 2.65434C11.915 2.65434 11.8632 2.67468 11.8299 2.78373C11.7008 3.24031 11.4266 3.64249 11.0489 3.92958C10.6711 4.21667 10.2102 4.37309 9.73567 4.37523C9.26023 4.37221 8.79877 4.21405 8.42143 3.92479C8.04409 3.63553 7.7715 3.23099 7.6451 2.77264C7.61183 2.65619 7.55453 2.63956 7.44917 2.63956C5.16081 2.63956 2.87246 2.63956 0.584104 2.63956C0.45927 2.65318 0.333508 2.62402 0.2274 2.55686C0.121291 2.48971 0.0411177 2.38852 0 2.26987V2.03512C0.120148 1.7634 0.336415 1.68577 0.622921 1.68577C2.8854 1.68577 5.14787 1.68577 7.41035 1.68577H7.59519C7.60998 1.63771 7.62292 1.60259 7.63401 1.56562C7.70655 1.29163 7.83453 1.03544 8.01003 0.812881C8.18553 0.590326 8.40482 0.406142 8.65434 0.271719C8.90512 0.16292 9.16332 0.0721174 9.42699 0H10.0129C10.037 0 10.0591 0.0184838 10.0813 0.0240291C10.4426 0.0798665 10.7837 0.226993 11.0722 0.451477C11.3607 0.675961 11.5872 0.970373 11.7301 1.30684C11.7893 1.43253 11.8262 1.56932 11.8762 1.70425H12.0425C12.817 1.70425 13.5933 1.70425 14.3697 1.70425C14.4977 1.68652 14.6279 1.71105 14.7407 1.7741C14.8534 1.83716 14.9425 1.93529 14.9945 2.0536L15 2.28466ZM9.74122 0.933457C9.41242 0.934435 9.09743 1.06574 8.86528 1.29858C8.63313 1.53142 8.50277 1.8468 8.50277 2.1756C8.50375 2.50604 8.63558 2.82263 8.8694 3.05612C9.10323 3.2896 9.42002 3.42095 9.75046 3.42144C10.0781 3.41857 10.3915 3.28754 10.6237 3.05641C10.8558 2.82527 10.9883 2.51242 10.9926 2.18484C10.9931 2.02037 10.9611 1.85743 10.8983 1.70538C10.8356 1.55334 10.7435 1.41519 10.6272 1.29889C10.5109 1.18259 10.3727 1.09043 10.2207 1.02772C10.0686 0.965003 9.90569 0.932969 9.74122 0.933457Z" fill="#504F4F"/>
<path d="M0 12.7153C0.0411177 12.5967 0.121291 12.4955 0.2274 12.4283C0.333508 12.3612 0.45927 12.332 0.584104 12.3456C2.86691 12.3456 5.14972 12.3456 7.43438 12.3456C7.56192 12.3456 7.61922 12.3142 7.65065 12.1848C7.78545 11.7352 8.06126 11.3408 8.43737 11.0598C8.81347 10.7789 9.26994 10.6264 9.73937 10.6248C10.2131 10.6283 10.6729 10.7853 11.0498 11.0722C11.4267 11.3592 11.7004 11.7606 11.8299 12.2163C11.8595 12.3272 11.902 12.3604 12.0148 12.3604C12.8096 12.3604 13.6063 12.3604 14.4011 12.3604C14.5283 12.3432 14.6575 12.3707 14.7667 12.4381C14.8759 12.5055 14.9584 12.6087 15 12.7301V12.963C14.947 13.0803 14.8576 13.1772 14.745 13.2395C14.6324 13.3018 14.5027 13.3261 14.3752 13.3087C13.5952 13.2976 12.8133 13.3087 12.0333 13.3087H11.8762C11.8614 13.353 11.8484 13.3845 11.8392 13.4177C11.7583 13.7165 11.6129 13.994 11.4134 14.2306C11.2138 14.4672 10.9648 14.6573 10.6839 14.7874C10.4671 14.8735 10.2448 14.9452 10.0185 15.0018H9.42699C9.40305 14.9903 9.37835 14.9804 9.35305 14.9723C8.93743 14.8988 8.55212 14.7062 8.24399 14.4177C7.92508 14.1194 7.70131 13.7336 7.60074 13.3087H7.4159C5.15342 13.3087 2.89094 13.3087 0.628466 13.3087C0.500415 13.325 0.370501 13.2997 0.257971 13.2364C0.14544 13.1732 0.0562782 13.0754 0.00369624 12.9575L0 12.7153ZM9.74492 14.0665C10.0726 14.0641 10.3862 13.9329 10.618 13.7011C10.8497 13.4694 10.9809 13.1558 10.9834 12.8281C10.9819 12.4978 10.8503 12.1813 10.6171 11.9474C10.3839 11.7135 10.0678 11.581 9.73752 11.5785C9.40886 11.582 9.09482 11.7149 8.86363 11.9485C8.63243 12.1821 8.50276 12.4976 8.50277 12.8262C8.50253 12.9893 8.5345 13.1509 8.59686 13.3016C8.65922 13.4523 8.75074 13.5892 8.86616 13.7045C8.98157 13.8197 9.11862 13.911 9.26942 13.9731C9.42022 14.0353 9.58182 14.067 9.74492 14.0665Z" fill="#504F4F"/>
<path d="M0 7.38263C0.0455391 7.26344 0.130036 7.16316 0.239765 7.09806C0.349494 7.03296 0.478008 7.00687 0.604436 7.02403C1.39002 7.03512 2.1756 7.02403 2.96118 7.02403H3.12754C3.25057 6.47802 3.57711 5.99944 4.04067 5.68577C4.40625 5.43795 4.83935 5.30886 5.28096 5.31608C5.77484 5.322 6.25243 5.49355 6.6372 5.80324C7.02196 6.11293 7.29162 6.54283 7.40296 7.02403H7.57856C9.85213 7.02403 12.1257 7.02403 14.4011 7.02403C14.5269 7.00826 14.6544 7.03452 14.7637 7.0987C14.873 7.16289 14.958 7.26141 15.0055 7.37893V7.61368C14.958 7.7312 14.873 7.82972 14.7637 7.89391C14.6544 7.95809 14.5269 7.98434 14.4011 7.96858C12.1275 7.96858 9.85213 7.96858 7.57856 7.96858H7.4085C7.29625 8.44943 7.02675 8.87908 6.64272 9.18945C6.25868 9.49983 5.78206 9.67319 5.28835 9.68207C4.78745 9.68145 4.30137 9.512 3.90863 9.2011C3.51589 8.89019 3.23941 8.45597 3.12384 7.96858H2C1.53789 7.96858 1.07579 7.95749 0.609982 7.96858C0.483548 7.98791 0.354296 7.96368 0.243451 7.89986C0.132606 7.83604 0.0467562 7.73643 0 7.61738V7.38263ZM5.26433 8.74307C5.42785 8.74259 5.58966 8.70987 5.74053 8.64679C5.89139 8.58371 6.02834 8.4915 6.14354 8.37545C6.25873 8.25939 6.34992 8.12176 6.41188 7.97044C6.47383 7.81911 6.50535 7.65705 6.50462 7.49353C6.50365 7.16587 6.37305 6.8519 6.14135 6.6202C5.90966 6.38851 5.59569 6.25791 5.26802 6.25693C5.10441 6.2562 4.94227 6.28771 4.79083 6.34964C4.6394 6.41158 4.50165 6.50273 4.38545 6.61791C4.26925 6.73308 4.17687 6.87001 4.11359 7.02089C4.05031 7.17176 4.01736 7.33362 4.01664 7.49723C4.01713 7.82782 4.14879 8.1447 4.38273 8.37828C4.61666 8.61187 4.93374 8.74307 5.26433 8.74307Z" fill="#504F4F"/>
</g>
<defs>
<clipPath id="clip0_2_589">
<rect width="15" height="15" fill="white"/>
</clipPath>
</defs>
</svg>
