<svg width="12" height="11" viewBox="0 0 12 11" fill="none" xmlns="http://www.w3.org/2000/svg">
<g clip-path="url(#clip0_2_657)">
<path d="M8.92815 1.72333C8.92815 2.0759 8.92815 2.39744 8.92815 2.71897C8.92637 2.78534 8.93717 2.85141 8.95991 2.91328C8.98266 2.97514 9.0169 3.03154 9.06058 3.07914C9.10426 3.12674 9.1565 3.16457 9.21423 3.1904C9.27196 3.21622 9.33399 3.22951 9.39665 3.22949C9.45931 3.22951 9.52133 3.21622 9.57906 3.1904C9.63679 3.16457 9.68904 3.12674 9.73273 3.07914C9.77641 3.03154 9.81063 2.97514 9.83338 2.91328C9.85612 2.85141 9.86694 2.78534 9.86516 2.71897C9.86516 2.2141 9.86516 1.70923 9.86516 1.20436C9.85582 0.888079 9.73306 0.587459 9.52189 0.363706C9.31071 0.139953 9.027 0.00989094 8.7285 2.18861e-08C8.25202 2.18861e-08 7.77553 2.18861e-08 7.29905 2.18861e-08C7.23654 -0.0018944 7.1743 0.00956652 7.11606 0.0336995C7.05782 0.0578326 7.00476 0.0941436 6.96005 0.140468C6.91534 0.186792 6.87989 0.242182 6.85581 0.303334C6.83173 0.364487 6.81952 0.43015 6.8199 0.49641C6.81985 0.562925 6.83248 0.628764 6.85704 0.689973C6.88161 0.751183 6.91761 0.806499 6.96286 0.852601C7.00811 0.898703 7.06169 0.934639 7.12038 0.95825C7.17906 0.981861 7.24165 0.992661 7.30438 0.99C7.59187 0.99 7.88202 0.99 8.16951 0.99C8.20145 0.99 8.2387 0.973077 8.27064 1.00692L6.24225 3.15897C6.19192 3.21081 6.13085 3.24944 6.06391 3.27179C5.97033 3.30624 5.86901 3.30928 5.77375 3.28051C5.67848 3.25174 5.5939 3.19256 5.53152 3.11103C4.68325 2.19718 3.83144 1.28615 2.97607 0.377949C2.93462 0.324121 2.88296 0.280111 2.82445 0.248766C2.76594 0.217421 2.70186 0.199439 2.63637 0.195983C2.57089 0.192527 2.50545 0.203674 2.44428 0.228703C2.38312 0.253732 2.32759 0.292085 2.28129 0.341282C2.23561 0.388371 2.19961 0.444942 2.17551 0.507455C2.15141 0.569968 2.13974 0.637079 2.14124 0.704589C2.14274 0.772098 2.15737 0.838553 2.18422 0.899796C2.21106 0.961039 2.24954 1.01575 2.29726 1.06051C3.16683 2.00068 4.03817 2.93239 4.91128 3.85564C5.04087 3.99836 5.19693 4.11112 5.36963 4.18684C5.54234 4.26257 5.72797 4.29961 5.91484 4.29564C6.11501 4.29505 6.31292 4.25065 6.49615 4.16523C6.67937 4.07981 6.84396 3.95521 6.97961 3.79923C7.61581 3.10256 8.26267 2.42846 8.92815 1.72333Z" fill="#FDFDFD"/>
<path d="M0 9.09051C0.0463916 8.94009 0.0784901 8.78513 0.0958257 8.62795C0.322294 7.62628 0.913726 6.7603 1.7409 6.21923C2.63707 5.62084 3.64523 5.23589 4.69564 5.09103C5.31842 4.99238 5.94956 4.96684 6.57763 5.01487C6.7826 5.01487 6.99023 5.0459 7.1952 5.07974C7.25748 5.08648 7.31779 5.10676 7.37234 5.13932C7.42689 5.17187 7.47452 5.216 7.51225 5.26894C7.54997 5.32189 7.57699 5.38251 7.5916 5.44701C7.60621 5.51152 7.6081 5.57853 7.59715 5.64385C7.59089 5.70687 7.57282 5.76793 7.54403 5.82347C7.51523 5.879 7.47626 5.9279 7.42942 5.96729C7.38257 6.00669 7.32879 6.03579 7.2712 6.05289C7.21362 6.07 7.15339 6.07477 7.09404 6.06692C6.6441 6.0153 6.19168 5.99175 5.73913 5.99641C4.62307 6.01339 3.52733 6.31526 2.54481 6.87641C2.10483 7.11544 1.72375 7.46028 1.43211 7.88333C1.14399 8.3237 0.977165 8.84031 0.950296 9.37538C0.944505 9.45427 0.953833 9.53358 0.977721 9.60855C1.00161 9.68352 1.03957 9.75259 1.08931 9.81161C1.13904 9.87063 1.19953 9.91838 1.26713 9.95199C1.33474 9.9856 1.40805 10.0044 1.48268 10.0072C1.90079 10.0355 2.31985 9.97016 2.71251 9.81538C2.83106 9.77023 2.93479 9.6898 3.01128 9.58374C3.08777 9.47768 3.13376 9.35049 3.14374 9.21744C3.18101 8.84795 3.15704 8.47564 3.16236 8.10333C3.14348 7.96804 3.1744 7.83023 3.24872 7.71841C3.32304 7.60659 3.43507 7.52931 3.56165 7.50256C4.48231 7.18911 5.45 7.05999 6.41525 7.12179C7.12516 7.14003 7.82854 7.27027 8.50222 7.5082C8.61986 7.53651 8.72361 7.60958 8.79377 7.71356C8.86394 7.81754 8.89565 7.9452 8.88287 8.07231V8.91846C8.88287 9.51359 9.06121 9.76462 9.60425 9.9C9.90577 9.96997 10.214 10.0022 10.5226 9.9959C10.6001 9.9966 10.6769 9.98013 10.748 9.94756C10.8192 9.91498 10.8831 9.86702 10.9357 9.80674C10.9884 9.74647 11.0285 9.6752 11.0537 9.59752C11.0788 9.51984 11.0883 9.43745 11.0816 9.35564C11.0653 8.93981 10.9611 8.53316 10.7769 8.1656C10.5926 7.79805 10.3329 7.47896 10.0168 7.23179C9.73485 7.0164 9.43557 6.82764 9.12244 6.66769C9.06387 6.64168 9.01091 6.60332 8.96677 6.55495C8.92263 6.50658 8.88824 6.44921 8.86567 6.38632C8.8431 6.32342 8.83284 6.25633 8.83549 6.1891C8.83815 6.12188 8.85368 6.05593 8.88113 5.99526C8.90859 5.93459 8.9474 5.88047 8.9952 5.83618C9.04301 5.79189 9.09881 5.75836 9.15922 5.73763C9.21963 5.7169 9.2834 5.7094 9.34663 5.71558C9.40986 5.72176 9.47124 5.7415 9.52706 5.77359C9.80407 5.91013 10.071 6.06852 10.3256 6.24744C10.8402 6.59073 11.2657 7.06483 11.5634 7.62667C11.7863 8.06582 11.934 8.54325 12 9.03692C12 9.05949 12 9.08769 12.024 9.09897V9.64333C11.9814 9.67718 11.9867 9.73077 11.976 9.7759C11.9064 10.0808 11.7519 10.3564 11.5326 10.5672C11.3133 10.7779 11.0394 10.9139 10.7462 10.9577C10.1778 11.0259 9.60211 10.9544 9.06388 10.749C8.77814 10.6542 8.5233 10.4762 8.32844 10.2353C8.13358 9.99443 8.00655 9.70037 7.96184 9.38667C7.92639 9.08263 7.91749 8.77577 7.93522 8.47C7.93522 8.3741 7.90327 8.3459 7.82341 8.32333C6.62062 8.01582 5.36605 8.01582 4.16325 8.32333C4.10203 8.34026 4.0834 8.36564 4.08606 8.43051C4.08606 8.61667 4.08606 8.80282 4.08606 8.99462C4.10774 9.41215 3.98996 9.82445 3.7534 10.1592C3.51684 10.4939 3.1766 10.7297 2.79237 10.8251C2.37386 10.9476 1.94071 11.0046 1.50665 10.9944C1.16634 10.9933 0.8365 10.8696 0.57138 10.6435C0.30626 10.4175 0.121655 10.1025 0.0479129 9.75051C0.0479129 9.71949 0.047909 9.67436 0.0106419 9.65461L0 9.09051Z" fill="#C71118"/>
<path d="M8.92811 1.72333C8.26262 2.42846 7.61577 3.11103 6.97424 3.79923C6.83859 3.95521 6.674 4.07981 6.49077 4.16523C6.30755 4.25065 6.10964 4.29505 5.90947 4.29564C5.72521 4.2984 5.54236 4.2613 5.37209 4.18661C5.20183 4.11193 5.04774 4.00123 4.91923 3.86128C4.04612 2.93427 3.17478 2.00256 2.30521 1.06615C2.25749 1.02139 2.219 0.96668 2.19215 0.905437C2.1653 0.844194 2.15068 0.777739 2.14918 0.71023C2.14768 0.64272 2.15934 0.575609 2.18344 0.513096C2.20754 0.450583 2.24356 0.394012 2.28924 0.346923C2.33554 0.297726 2.39105 0.259373 2.45222 0.234344C2.51338 0.209315 2.57884 0.198168 2.64432 0.201625C2.70981 0.205081 2.77387 0.223062 2.83239 0.254407C2.8909 0.285752 2.94255 0.329762 2.984 0.38359C3.8376 1.29179 4.68943 2.20282 5.53947 3.11667C5.60185 3.1982 5.68642 3.25739 5.78168 3.28615C5.87695 3.31492 5.97828 3.31188 6.07186 3.27744C6.1388 3.25509 6.19987 3.21645 6.2502 3.16462L8.27859 1.01256C8.24665 0.978718 8.20938 0.995641 8.17744 0.995641C7.88995 0.995641 7.5998 0.995641 7.31231 0.995641C7.24959 0.998302 7.187 0.987502 7.12831 0.963891C7.06963 0.94028 7.01605 0.904344 6.9708 0.858242C6.92555 0.81214 6.88956 0.756824 6.86499 0.695614C6.84043 0.634405 6.82779 0.568566 6.82784 0.502051C6.82745 0.435791 6.83966 0.370128 6.86374 0.308975C6.88782 0.247823 6.92329 0.192433 6.968 0.146109C7.01271 0.0997845 7.06577 0.0634735 7.12401 0.0393404C7.18225 0.0152074 7.24447 0.00374677 7.30698 0.00564119C7.78347 0.00564119 8.25995 0.00564119 8.73644 0.00564119C9.03403 0.0161956 9.31671 0.146174 9.52725 0.369259C9.7378 0.592344 9.86047 0.891866 9.87043 1.20718C9.87043 1.71205 9.87043 2.21692 9.87043 2.7218C9.87221 2.78816 9.86141 2.85423 9.83866 2.9161C9.81592 2.97796 9.78169 3.03436 9.73801 3.08196C9.69433 3.12956 9.64207 3.16739 9.58435 3.19322C9.52662 3.21904 9.46458 3.23233 9.40192 3.23231C9.33926 3.23233 9.27724 3.21904 9.21952 3.19322C9.16179 3.16739 9.10953 3.12956 9.06585 3.08196C9.02217 3.03436 8.98795 2.97796 8.9652 2.9161C8.94245 2.85423 8.93166 2.78816 8.93344 2.7218C8.92545 2.39744 8.92811 2.0759 8.92811 1.72333Z" fill="#C71118"/>
</g>
<defs>
<clipPath id="clip0_2_657">
<rect width="12" height="11" fill="white"/>
</clipPath>
</defs>
</svg>
