<svg width="15" height="15" viewBox="0 0 15 15" fill="none" xmlns="http://www.w3.org/2000/svg">
<path d="M8.84808 0C9.12519 0.0456522 9.40882 0.0750001 9.68268 0.140217C10.7692 0.405885 11.7067 1.09041 12.2908 2.04456C12.6976 2.67709 12.9231 3.40907 12.9428 4.16087C12.9428 4.25217 12.9885 4.28152 13.0635 4.30761C13.5397 4.44873 13.9672 4.7196 14.2983 5.08989C14.6293 5.46019 14.8508 5.91531 14.9381 6.40435C15.0586 7.03846 14.9539 7.69478 14.642 8.25984C14.33 8.82491 13.8305 9.26319 13.2297 9.49891C12.873 9.6309 12.4951 9.69612 12.1148 9.6913H6.8007C6.91154 9.89348 6.99957 10.0793 7.10715 10.2522C7.31557 10.614 7.61586 10.9144 7.97761 11.1228C8.03929 11.1718 8.11569 11.1984 8.19441 11.1984C8.27314 11.1984 8.34954 11.1718 8.41121 11.1228C8.48294 11.0641 8.5677 11.025 8.64269 10.9728C8.75742 10.8846 8.88841 10.8198 9.02816 10.7823C9.16792 10.7447 9.31371 10.735 9.45721 10.7538C9.60071 10.7725 9.73911 10.8194 9.8645 10.8917C9.98989 10.964 10.0998 11.0602 10.188 11.175C10.5792 11.6967 10.9509 12.238 11.2932 12.8054C11.6355 13.3728 11.4953 14.0054 10.9411 14.475C10.64 14.7426 10.2702 14.9207 9.87327 14.9893C9.47638 15.0578 9.06823 15.0141 8.69485 14.863C7.81017 14.5264 7.01402 13.9922 6.36709 13.3011C5.36587 12.3099 4.5791 11.1234 4.05564 9.81522C4.04624 9.77326 4.02095 9.73658 3.98509 9.71286C3.94922 9.68915 3.90557 9.68026 3.86329 9.68804C3.40552 9.71148 2.94662 9.67752 2.49728 9.58696C1.85945 9.42978 1.28351 9.08464 0.844065 8.59626C0.404619 8.10789 0.121924 7.49877 0.0326011 6.84783C0.0326011 6.79565 0.00978048 6.74348 0 6.6913V6.13696C0.0620114 5.82299 0.141466 5.51273 0.237993 5.20761C0.497777 4.5359 0.972582 3.96911 1.5883 3.5957C2.20403 3.2223 2.92602 3.06328 3.6416 3.14348C3.89915 3.17935 4.15344 3.24782 4.42078 3.30326C4.44686 3.21196 4.4762 3.11087 4.5088 3.00978C4.54222 2.89912 4.5814 2.79027 4.62617 2.6837C4.8742 2.05995 5.26743 1.50439 5.7732 1.06316C6.27898 0.621924 6.8827 0.307755 7.53423 0.146738C7.80809 0.074999 8.09824 0.048913 8.37861 0H8.84808ZM6.84634 8.85H12.2126C12.3218 8.84989 12.4308 8.84117 12.5386 8.82391C12.9878 8.75528 13.3981 8.52954 13.6965 8.18682C13.995 7.84411 14.1623 7.40663 14.1687 6.95217C14.1724 6.50881 14.0229 6.07776 13.7455 5.73194C13.468 5.38613 13.0797 5.14677 12.6462 5.05435C12.2028 4.96956 12.105 4.80652 12.1278 4.40217C12.1596 3.86286 12.047 3.32483 11.8018 2.84348C11.5217 2.23807 11.0713 1.72747 10.5055 1.37418C9.93982 1.02089 9.28339 0.84024 8.61661 0.854349C7.76225 0.837775 6.93478 1.1534 6.30841 1.73478C5.66787 2.29289 5.25768 3.06928 5.15757 3.91304C5.15378 3.98768 5.13119 4.06014 5.09191 4.1237C5.05263 4.18727 4.99792 4.23987 4.93287 4.27663C4.86782 4.31339 4.79454 4.33312 4.71983 4.33397C4.64513 4.33483 4.57141 4.31678 4.50554 4.28152L4.32297 4.19022C3.98635 4.03024 3.61635 3.9531 3.24386 3.96522C2.80764 3.96767 2.38062 4.09082 2.01006 4.32103C1.6395 4.55125 1.33986 4.87954 1.14432 5.26957C0.923563 5.65415 0.817041 6.09373 0.837252 6.53673C0.857463 6.97973 1.00357 7.40778 1.25842 7.77065C1.52168 8.16727 1.89224 8.48086 2.32689 8.67485C2.76154 8.86884 3.24238 8.93524 3.71332 8.8663C3.71332 8.81739 3.71332 8.77174 3.68724 8.72283C3.53724 8.14531 3.49414 7.54521 3.5601 6.95217C3.57631 6.69943 3.64226 6.45238 3.75415 6.22519C3.86604 5.99801 4.02167 5.79515 4.21213 5.62826C4.45913 5.44552 4.72598 5.29128 5.00761 5.16848C5.24885 5.04357 5.52789 5.01278 5.79055 5.08207C6.05322 5.15137 6.28077 5.31581 6.42904 5.54348C6.74419 6 7.0539 6.46196 7.35818 6.92935C7.52506 7.15901 7.6066 7.43971 7.58874 7.72305C7.57089 8.0064 7.45476 8.27463 7.26038 8.48152C7.12954 8.61218 6.9913 8.73521 6.84634 8.85ZM4.34905 7.5C4.40298 8.2497 4.58607 8.98443 4.89024 9.67174C5.41809 10.9044 6.19506 12.0146 7.17235 12.9326C7.66432 13.4162 8.24565 13.7994 8.88394 14.0609C9.08523 14.1574 9.30765 14.2014 9.53052 14.1889C9.75339 14.1763 9.96947 14.1076 10.1587 13.9891C10.2499 13.9337 10.3445 13.8848 10.4358 13.8261C10.4873 13.7997 10.5326 13.7625 10.5687 13.7172C10.6047 13.6719 10.6307 13.6194 10.6449 13.5633C10.6591 13.5071 10.6612 13.4486 10.651 13.3916C10.6408 13.3345 10.6185 13.2804 10.5857 13.2326C10.2793 12.763 9.9674 12.2967 9.65008 11.8337C9.58632 11.7451 9.49175 11.6837 9.38496 11.6613C9.27818 11.639 9.16691 11.6575 9.07303 11.713C8.9971 11.7559 8.92413 11.8039 8.8546 11.8565C8.69461 11.9798 8.50249 12.0542 8.30126 12.071C8.10003 12.0878 7.89823 12.0461 7.72006 11.9511C7.32237 11.7708 6.97689 11.4925 6.71593 11.1424C6.32883 10.6811 6.06222 10.131 5.94001 9.5413C5.85756 9.2618 5.87569 8.96223 5.99125 8.69472C6.10681 8.4272 6.31248 8.20868 6.57248 8.07717C6.63093 8.04958 6.6821 8.00868 6.7219 7.95775C6.76171 7.90683 6.78904 7.84729 6.80172 7.7839C6.81439 7.72051 6.81206 7.65504 6.79489 7.59272C6.77773 7.5304 6.74623 7.47296 6.70289 7.425C6.47468 7.07935 6.24321 6.73696 6.01174 6.3913C5.94327 6.29022 5.87807 6.18913 5.80635 6.08804C5.78173 6.04106 5.74734 5.9999 5.70549 5.96731C5.66365 5.93473 5.61532 5.91148 5.56375 5.89912C5.51217 5.88677 5.45856 5.88559 5.40649 5.89568C5.35443 5.90577 5.30513 5.92689 5.2619 5.95761C5.15757 6.0163 5.05325 6.08152 4.93588 6.14022C4.82559 6.19915 4.72869 6.28027 4.65126 6.37848C4.57383 6.47668 4.51756 6.58985 4.48598 6.71087C4.43056 6.9587 4.39796 7.22283 4.34905 7.5Z" fill="#AB7711"/>
</svg>
