<svg width="17" height="18" viewBox="0 0 17 18" fill="none" xmlns="http://www.w3.org/2000/svg">
<path d="M8.5 17.1453C13.1944 17.1453 17 13.3072 17 8.57265C17 3.83811 13.1944 0 8.5 0C3.80558 0 0 3.83811 0 8.57265C0 13.3072 3.80558 17.1453 8.5 17.1453Z" fill="#F7941E"/>
<path d="M6 8.62586V6.36271C6.0002 6.22863 6.03917 6.09695 6.113 5.98085C6.18683 5.86475 6.29293 5.76832 6.42069 5.7012C6.54844 5.63407 6.69335 5.59862 6.84092 5.59839C6.98849 5.59816 7.13355 5.63316 7.26155 5.69988L9.41789 6.83145L11.5783 7.96303C11.7064 8.0297 11.8129 8.12594 11.8869 8.24201C11.961 8.35808 12 8.48987 12 8.62403C12 8.75819 11.961 8.88998 11.8869 9.00605C11.8129 9.12212 11.7064 9.21836 11.5783 9.28503L9.42192 10.4166L7.26559 11.5482C7.13758 11.6149 6.99253 11.6499 6.84496 11.6497C6.69738 11.6494 6.55246 11.614 6.42471 11.5469C6.29696 11.4797 6.19086 11.3833 6.11703 11.2672C6.0432 11.1511 6.00423 11.0194 6.00403 10.8854L6 8.62586Z" fill="white"/>
</svg>
