<svg width="13" height="13" viewBox="0 0 13 13" fill="none" xmlns="http://www.w3.org/2000/svg">
<path d="M5.21629 0H5.21796V0.000749236C6.6579 0.00117737 7.96176 0.600245 8.9053 1.56826C9.84727 2.53488 10.4308 3.87109 10.4317 5.34687H10.4325V5.3504V5.35468H10.4317C10.4312 5.94947 10.3361 6.52188 10.1611 7.05566C10.1317 7.14525 10.1011 7.2313 10.0695 7.3135V7.31425C9.91865 7.706 9.72362 8.07633 9.49071 8.41745L12.5254 11.2152L12.5273 11.2169L12.5437 11.2325L12.5448 11.2337C12.7162 11.401 12.8095 11.625 12.8213 11.8524C12.8328 12.0771 12.7646 12.3071 12.6148 12.4915L12.6136 12.4932L12.5954 12.5149L12.5917 12.5187L12.5765 12.5358L12.5748 12.538C12.4115 12.7138 12.1935 12.8093 11.9716 12.8212C11.7528 12.8331 11.5285 12.7634 11.3486 12.6095L11.347 12.6084L11.3257 12.5896L11.3227 12.5871L8.21878 9.72561C8.12695 9.79197 8.03324 9.85502 7.93838 9.91453C7.80972 9.99534 7.67646 10.0714 7.5405 10.1409C6.84145 10.4986 6.05151 10.6998 5.21639 10.6998V10.7006H5.21472V10.6998C3.77479 10.6994 2.47071 10.1003 1.52717 9.13233C0.584886 8.1657 0.00166961 6.82928 0.000730456 5.35393H0V5.3504V5.34869H0.000730456C0.00114786 3.87173 0.5852 2.53413 1.52895 1.56633C2.47134 0.600245 3.77406 0.00171254 5.21285 0.000749236V0H5.21629ZM5.21796 1.19985V1.2006H5.21629H5.21285V1.19985C4.09775 1.2006 3.08701 1.66544 2.3553 2.41564C1.6237 3.16584 1.17009 4.20364 1.16977 5.34879H1.1705V5.35051V5.35404H1.16977C1.1705 6.4978 1.62339 7.53399 2.35509 8.28473C3.08649 9.03525 4.09827 9.50052 5.21462 9.50074V9.49999H5.21629H5.21973V9.50074C6.33483 9.49999 7.34515 9.03535 8.07707 8.28494C8.80867 7.53474 9.26228 6.49726 9.26249 5.35222H9.26187V5.35051V5.34697H9.26249C9.26187 4.20321 8.80857 3.16648 8.07728 2.41596C7.34588 1.66544 6.33441 1.20017 5.21796 1.19985Z" fill="#A5A5A5"/>
</svg>
