<svg width="21" height="22" viewBox="0 0 21 22" fill="none" xmlns="http://www.w3.org/2000/svg">
<g clip-path="url(#clip0_1_228)">
<path d="M16.0703 15.6578C15.4927 12.3842 12.3999 12.1072 12.3999 12.1072C12.3999 12.1072 9.85822 12.0632 4.53688 12.1072C0.925398 12.3251 0.504866 15.7308 0.504866 15.7308C0.504866 15.7308 0.474828 18.9604 0.504866 20.081C0.707045 21.2885 1.83924 21.5075 1.83924 21.5075H14.6481C16.0264 21.2595 16.1142 19.9501 16.1142 19.9501L16.0703 15.6578Z" stroke="#9B9B9B" stroke-width="1.2" stroke-miterlimit="10"/>
<path d="M13.0423 11.0272C12.9461 11.0055 12.8593 10.9536 12.7947 10.879C12.7301 10.8043 12.6909 10.7109 12.683 10.6124C12.6694 10.4894 12.6974 10.3653 12.7626 10.2603C12.8277 10.1552 12.9262 10.0751 13.0423 10.033C13.107 10.0214 17.1112 10.0214 17.5133 10.0874C17.9153 10.1535 19.2659 10.3818 20.2987 11.8986C21.0277 13.0447 20.9295 13.514 20.9734 14.3542C20.9954 15.2163 21.0116 17.8665 20.9896 18.0357C20.9677 18.2049 20.8429 19.0473 19.5813 19.4263L17.8691 19.4413C17.7683 19.4074 17.6822 19.3397 17.6254 19.2496C17.5686 19.1594 17.5445 19.0524 17.5572 18.9465C17.5579 18.8796 17.5719 18.8134 17.5982 18.7519C17.6246 18.6904 17.6628 18.6347 17.7107 18.5881C17.7586 18.5414 17.8152 18.5048 17.8773 18.4802C17.9394 18.4556 18.0057 18.4435 18.0725 18.4448C18.2758 18.4448 19.5374 18.4158 19.5374 18.4158C19.5374 18.4158 19.9799 18.2385 19.9995 17.9013C20.0191 17.5641 19.9706 14.4249 19.9556 13.6577C19.9406 12.8906 19.1723 11.9114 18.6351 11.5475C18.0979 11.1837 17.5618 10.9589 16.0241 11.0098C13.4154 10.9983 13.0423 11.0272 13.0423 11.0272Z" fill="#9B9B9B"/>
<path d="M8.29625 2.42307C7.48086 2.42467 6.68424 2.66866 6.00704 3.12421C5.32984 3.57976 4.80246 4.22642 4.49153 4.98249C4.1806 5.73856 4.10008 6.5701 4.26013 7.37206C4.42019 8.17401 4.81364 8.91039 5.39077 9.48814C5.96791 10.0659 6.70283 10.4591 7.50267 10.6181C8.30251 10.777 9.13138 10.6946 9.88456 10.3813C10.6377 10.0679 11.2814 9.53768 11.7342 8.85754C12.1871 8.1774 12.4288 7.37788 12.4288 6.56002C12.4276 5.4618 11.9915 4.40904 11.2165 3.63324C10.4416 2.85745 9.39115 2.42214 8.29625 2.42307Z" stroke="#9B9B9B" stroke-width="1.2" stroke-miterlimit="10"/>
<path d="M12.0083 1.23761C11.8798 1.24566 11.7533 1.20302 11.6557 1.1188C11.5581 1.03458 11.4973 0.91545 11.4861 0.78683C11.4283 0.307083 11.8604 0.150643 12.9799 0.0150628C14.1849 -0.129788 16.7658 0.72889 17.303 3.55175C17.5572 5.25404 16.5994 6.56465 16.425 6.72689C16.425 6.72689 15.5782 7.76982 14.4136 8.05836C14.2172 8.12441 13.5968 7.71999 14.0867 7.17419C14.6643 6.9123 15.8196 6.4986 16.2944 4.82876C16.7693 3.15891 15.131 0.234078 12.0083 1.23761Z" fill="#9B9B9B"/>
<path d="M13.6673 17.5745C13.6072 17.7982 13.3992 17.8967 13.1532 17.9082C13.0351 17.9063 12.9218 17.8616 12.8341 17.7823C12.7464 17.7031 12.6902 17.5947 12.676 17.4772C12.6702 17.2732 12.6864 16.0472 12.6864 16.0472C12.6864 16.0472 12.676 15.5837 12.2439 15.491C11.5115 15.4759 10.5976 15.4689 10.5976 15.4689C10.5976 15.4689 10.2926 15.4249 10.251 15.0216C10.2441 14.6288 10.4913 14.5199 10.5745 14.5187C10.5745 14.5187 12.0764 14.5083 12.3918 14.5465C12.7072 14.5848 13.6315 14.9938 13.6696 15.9C13.7077 16.8062 13.7273 17.3509 13.6673 17.5745Z" fill="#9B9B9B"/>
</g>
<defs>
<clipPath id="clip0_1_228">
<rect width="21" height="22" fill="white"/>
</clipPath>
</defs>
</svg>
