<svg width="32" height="32" viewBox="0 0 32 32" fill="none" xmlns="http://www.w3.org/2000/svg">
<mask id="mask0_2_713" style="mask-type:alpha" maskUnits="userSpaceOnUse" x="0" y="0" width="32" height="32">
<circle cx="16" cy="16" r="16" fill="#D9D9D9"/>
</mask>
<g mask="url(#mask0_2_713)">
<path d="M2.61367 18.0602C2.77927 14.8994 6.16327 8.5742 9.65887 5.8004C13.1545 3.0266 17.7589 4.6898 17.7589 1.2518C17.7589 -0.0765989 16.6789 -0.713799 15.3631 -0.996399C12.6602 -0.974484 9.99917 -0.326958 7.58843 0.895435C5.1777 2.11783 3.08279 3.88188 1.46787 6.04934C-0.147047 8.21681 -1.2381 10.7288 -1.71979 13.3885C-2.20148 16.0481 -2.06071 18.7832 -1.30853 21.3794C-0.745127 21.8042 -0.169127 22.112 0.282673 22.0544C1.61107 21.8888 2.44627 21.2228 2.61367 18.0602Z" fill="#F7E5E6"/>
<path d="M15.5124 -1H15.363C16.6824 -0.7174 17.7588 -0.0802001 17.7588 1.2482C17.7588 4.6862 13.1544 3.023 9.65881 5.7968C6.16321 8.5706 2.77921 14.8994 2.61361 18.0602C2.44801 21.221 1.61101 21.8888 0.282606 22.0544C-0.169194 22.112 -0.745194 21.8042 -1.30859 21.3794C-0.403959 24.5044 1.3534 27.3157 3.76639 29.4978C6.17938 31.6799 9.15258 33.1467 12.3525 33.7335C15.5525 34.3204 18.8527 34.0042 21.883 32.8204C24.9133 31.6365 27.5539 29.6319 29.5086 27.0312C31.4633 24.4306 32.6549 21.3368 32.9496 18.0968C33.2444 14.8569 32.6307 11.5989 31.1774 8.68819C29.724 5.77751 27.4886 3.32926 24.7216 1.61802C21.9547 -0.0932208 18.7657 -0.999784 15.5124 -1Z" fill="#E9ACAC"/>
<path d="M11.814 9.1844H19.527C19.527 9.1844 21.8004 10.1276 21.687 12.1238C21.5736 14.12 21.687 16.2854 21.687 16.2854L22.038 16.4888C22.3854 16.3916 23.7246 15.9398 23.676 14.732C23.6202 13.346 23.4546 7.5752 23.4546 7.5752C23.4546 7.5752 22.8444 6.5222 21.957 6.6878C21.957 6.6878 20.7366 3.3596 17.8512 3.1922H12.9246C10.0446 3.3596 8.81884 6.6878 8.81884 6.6878C7.93144 6.5222 7.32124 7.5752 7.32124 7.5752C7.32124 7.5752 7.15384 13.346 7.09984 14.732C7.04584 16.118 8.81884 16.5104 8.81884 16.5104L9.04024 11.4596C9.04024 11.4596 10.1022 9.1844 11.814 9.1844Z" fill="#010101"/>
<path d="M15.059 21.1958C14.9492 21.1112 12.2852 19.5038 11.459 17.0342C10.6328 14.5646 11.7362 13.0742 11.0432 11.7638C10.3502 10.4534 9.04516 11.4596 9.04516 11.4596L8.81836 16.5104C8.92096 20.5928 12.4184 22.382 12.8954 22.6124C15.6656 23.471 15.1706 21.2786 15.059 21.1958Z" fill="#F4D8D8"/>
<path d="M17.8294 22.6376C17.8294 22.6376 21.5824 20.672 21.694 16.2854C21.694 16.2854 21.5788 14.1254 21.694 12.1238C21.8092 10.1222 19.534 9.1844 19.534 9.1844H11.8138C10.102 9.1844 9.04004 11.4596 9.04004 11.4596C9.04004 11.4596 10.345 10.4606 11.038 11.7638C11.731 13.067 10.6222 14.5664 11.4538 17.0342C12.2854 19.502 14.9494 21.1112 15.0538 21.1958C15.1582 21.2804 15.4984 22.7744 14.0512 22.8158C15.3121 22.9572 16.5875 22.897 17.8294 22.6376Z" fill="#EDBDBD"/>
<path d="M15.4278 28.412C16.3692 28.4507 17.2991 28.1938 18.087 27.6773C18.875 27.1608 19.4816 26.4106 19.8216 25.532C19.0651 25.1707 18.453 24.5643 18.0846 23.8112C16.2216 25.2512 12.8322 23.9714 12.8322 23.9714C12.4398 24.6086 11.8242 25.0838 11.0322 25.4942C11.0322 25.4942 12.024 28.3526 15.4278 28.412Z" fill="#EDBDBD"/>
<path d="M23.156 26.792C21.8636 26.3636 20.7224 25.9838 19.8224 25.532C19.4825 26.41 18.8765 27.1598 18.0893 27.6762C17.302 28.1927 16.3729 28.4499 15.4322 28.412C14.278 28.4226 13.1602 28.0088 12.2912 27.2492C11.5229 27.853 10.6147 28.253 9.65058 28.412C7.82718 28.7162 7.51938 32.1254 7.51758 32.1488C11.6846 34.2404 15.0218 34.055 15.3908 34.028C15.8246 34.0604 20.2904 34.307 25.4024 30.9068C25.4024 30.9032 25.7084 27.6596 23.156 26.792Z" fill="#CD4645"/>
<path d="M9.64986 28.412C10.6127 28.2524 11.5197 27.8524 12.2869 27.2492C11.735 26.7689 11.3035 26.166 11.0269 25.4888C10.1017 25.964 8.95146 26.3528 7.62666 26.792C5.07426 27.6524 5.37846 30.896 5.37846 30.896C6.06524 31.3533 6.77937 31.768 7.51686 32.138C7.51866 32.1218 7.82646 28.7126 9.64986 28.412Z" fill="#D86E6F"/>
<path d="M13.0233 22.652C13.0233 22.652 15.4245 23.2082 17.8293 22.6394L18.0813 23.804C18.0813 23.804 15.3669 25.5932 12.8271 23.9642L13.0233 22.652Z" fill="#E59B9B"/>
</g>
</svg>
