<svg width="21" height="21" viewBox="0 0 21 21" fill="none" xmlns="http://www.w3.org/2000/svg">
<g clip-path="url(#clip0_2_736)">
<path d="M10.5103 0C8.43355 0 6.40349 0.615814 4.67677 1.76957C2.95005 2.92332 1.60424 4.5632 0.809523 6.48182C0.0148032 8.40045 -0.193132 10.5116 0.212013 12.5484C0.617158 14.5852 1.61719 16.4562 3.08564 17.9246C4.55409 19.3931 6.42501 20.3931 8.46181 20.7982C10.4986 21.2034 12.6098 20.9955 14.5284 20.2007C16.4471 19.406 18.0869 18.0602 19.2407 16.3335C20.3944 14.6068 21.0103 12.5767 21.0103 10.5C21.0075 7.71606 19.9004 5.04692 17.9319 3.07838C15.9633 1.10984 13.2942 0.00271648 10.5103 0ZM2.1 10.5C2.10346 8.64044 2.72689 6.83513 3.87166 5.36971L15.6406 17.1283C14.4008 18.0953 12.9142 18.6942 11.3504 18.8569C9.78666 19.0195 8.20864 18.7393 6.79646 18.0482C5.38427 17.3571 4.19481 16.2829 3.36379 14.9483C2.53276 13.6136 2.09366 12.0722 2.09658 10.5H2.1ZM17.1283 15.6303L5.35944 3.87508C6.97288 2.61943 8.98943 1.9964 11.03 2.12314C13.0705 2.24988 14.9945 3.11765 16.4401 4.56331C17.8858 6.00896 18.7535 7.93292 18.8803 9.97345C19.007 12.014 18.384 14.0305 17.1283 15.644V15.6303Z" fill="white"/>
</g>
<defs>
<clipPath id="clip0_2_736">
<rect width="21" height="21" fill="white"/>
</clipPath>
</defs>
</svg>
